<svg width="36" height="36" viewBox="0 0 36 36" fill="none" xmlns="http://www.w3.org/2000/svg">
<rect x="0.5" y="0.5" width="35" height="35" rx="17.5" stroke="#615EFC"/>
<path fill-rule="evenodd" clip-rule="evenodd" d="M12.5576 19.4325C12.6157 19.3743 12.6847 19.3281 12.7606 19.2966C12.8365 19.2651 12.9179 19.2489 13.0001 19.2489C13.0823 19.2489 13.1638 19.2651 13.2397 19.2966C13.3156 19.3281 13.3846 19.3743 13.4426 19.4325L18.0001 23.9912L22.5576 19.4325C22.675 19.3151 22.8342 19.2492 23.0001 19.2492C23.1661 19.2492 23.3253 19.3151 23.4426 19.4325C23.56 19.5498 23.6259 19.709 23.6259 19.875C23.6259 20.041 23.56 20.2001 23.4426 20.3175L18.4426 25.3175C18.3846 25.3757 18.3156 25.4219 18.2397 25.4534C18.1638 25.4849 18.0823 25.5011 18.0001 25.5011C17.9179 25.5011 17.8365 25.4849 17.7606 25.4534C17.6847 25.4219 17.6157 25.3757 17.5576 25.3175L12.5576 20.3175C12.4994 20.2594 12.4533 20.1905 12.4218 20.1145C12.3902 20.0386 12.374 19.9572 12.374 19.875C12.374 19.7928 12.3902 19.7114 12.4218 19.6354C12.4533 19.5595 12.4994 19.4905 12.5576 19.4325ZM12.5576 16.5675C12.6157 16.6257 12.6847 16.6719 12.7606 16.7034C12.8365 16.7349 12.9179 16.7511 13.0001 16.7511C13.0823 16.7511 13.1638 16.7349 13.2397 16.7034C13.3156 16.6719 13.3846 16.6257 13.4426 16.5675L18.0001 12.0087L22.5576 16.5675C22.675 16.6848 22.8342 16.7508 23.0001 16.7508C23.1661 16.7508 23.3253 16.6848 23.4426 16.5675C23.56 16.4501 23.6259 16.291 23.6259 16.125C23.6259 15.959 23.56 15.7998 23.4426 15.6825L18.4426 10.6825C18.3846 10.6243 18.3156 10.5781 18.2397 10.5466C18.1638 10.5151 18.0823 10.4989 18.0001 10.4989C17.9179 10.4989 17.8365 10.5151 17.7606 10.5466C17.6847 10.5781 17.6157 10.6243 17.5576 10.6825L12.5576 15.6825C12.4994 15.7405 12.4533 15.8095 12.4218 15.8854C12.3902 15.9614 12.374 16.0428 12.374 16.125C12.374 16.2072 12.3902 16.2886 12.4218 16.3645C12.4533 16.4405 12.4994 16.5094 12.5576 16.5675Z" fill="#615EFC"/>
</svg>
