<svg width="37" height="37" viewBox="0 0 37 37" fill="none" xmlns="http://www.w3.org/2000/svg">
<rect x="35.752" y="36.2522" width="35.2519" height="35.7522" rx="17.626" transform="rotate(-180 35.752 36.2522)" stroke="#B379ED"/>
<path fill-rule="evenodd" clip-rule="evenodd" d="M26.0683 22.5686C26.0103 22.6268 25.9413 22.673 25.8654 22.7045C25.7894 22.736 25.708 22.7522 25.6258 22.7522C25.5436 22.7522 25.4622 22.736 25.3863 22.7045C25.3104 22.673 25.2414 22.6268 25.1833 22.5686L18.1258 15.5099L11.0683 22.5686C11.0102 22.6267 10.9412 22.6728 10.8653 22.7043C10.7894 22.7357 10.708 22.7519 10.6258 22.7519C10.5437 22.7519 10.4623 22.7357 10.3864 22.7043C10.3104 22.6728 10.2414 22.6267 10.1833 22.5686C10.1252 22.5105 10.0791 22.4415 10.0477 22.3656C10.0162 22.2897 10 22.2083 10 22.1261C10 22.0439 10.0162 21.9626 10.0477 21.8866C10.0791 21.8107 10.1252 21.7417 10.1833 21.6836L17.6833 14.1836C17.7414 14.1254 17.8104 14.0792 17.8863 14.0477C17.9622 14.0162 18.0436 14 18.1258 14C18.208 14 18.2894 14.0162 18.3654 14.0477C18.4413 14.0792 18.5103 14.1254 18.5683 14.1836L26.0683 21.6836C26.1265 21.7417 26.1727 21.8106 26.2042 21.8866C26.2357 21.9625 26.252 22.0439 26.252 22.1261C26.252 22.2083 26.2357 22.2897 26.2042 22.3657C26.1727 22.4416 26.1265 22.5106 26.0683 22.5686Z" fill="#B379ED"/>
</svg>
