<svg width="20" height="20" viewBox="0 0 20 20" fill="none" xmlns="http://www.w3.org/2000/svg">
<path fill-rule="evenodd" clip-rule="evenodd" d="M4.55764 11.4325C4.6157 11.3743 4.68467 11.3281 4.7606 11.2966C4.83653 11.2651 4.91793 11.2489 5.00014 11.2489C5.08235 11.2489 5.16375 11.2651 5.23968 11.2966C5.31561 11.3281 5.38458 11.3743 5.44264 11.4325L10.0001 15.9912L14.5576 11.4325C14.675 11.3151 14.8342 11.2492 15.0001 11.2492C15.1661 11.2492 15.3253 11.3151 15.4426 11.4325C15.56 11.5498 15.6259 11.709 15.6259 11.875C15.6259 12.041 15.56 12.2001 15.4426 12.3175L10.4426 17.3175C10.3846 17.3757 10.3156 17.4219 10.2397 17.4534C10.1638 17.4849 10.0823 17.5011 10.0001 17.5011C9.91793 17.5011 9.83653 17.4849 9.7606 17.4534C9.68467 17.4219 9.6157 17.3757 9.55764 17.3175L4.55764 12.3175C4.49944 12.2594 4.45326 12.1905 4.42175 12.1145C4.39024 12.0386 4.37402 11.9572 4.37402 11.875C4.37402 11.7928 4.39024 11.7114 4.42175 11.6354C4.45326 11.5595 4.49944 11.4905 4.55764 11.4325ZM4.55764 8.56749C4.6157 8.62569 4.68467 8.67187 4.7606 8.70338C4.83653 8.73489 4.91793 8.7511 5.00014 8.7511C5.08235 8.7511 5.16375 8.73489 5.23968 8.70338C5.31561 8.67187 5.38458 8.62569 5.44264 8.56749L10.0001 4.00874L14.5576 8.56749C14.675 8.68485 14.8342 8.75078 15.0001 8.75078C15.1661 8.75078 15.3253 8.68485 15.4426 8.56749C15.56 8.45013 15.6259 8.29096 15.6259 8.12499C15.6259 7.95902 15.56 7.79985 15.4426 7.68249L10.4426 2.68249C10.3846 2.62428 10.3156 2.57811 10.2397 2.5466C10.1638 2.51509 10.0823 2.49887 10.0001 2.49887C9.91793 2.49887 9.83653 2.51509 9.7606 2.5466C9.68467 2.57811 9.6157 2.62428 9.55764 2.68249L4.55764 7.68249C4.49944 7.74054 4.45326 7.80951 4.42175 7.88545C4.39024 7.96138 4.37402 8.04278 4.37402 8.12499C4.37402 8.2072 4.39024 8.2886 4.42175 8.36453C4.45326 8.44046 4.49944 8.50943 4.55764 8.56749Z" fill="#999999"/>
</svg>
