<svg width="20" height="20" viewBox="0 0 20 20" fill="none" xmlns="http://www.w3.org/2000/svg">
<g clip-path="url(#clip0_7_43)">
<path fill-rule="evenodd" clip-rule="evenodd" d="M14.3748 18.75C14.5406 18.75 14.6995 18.6842 14.8168 18.5669C14.934 18.4497 14.9998 18.2908 14.9998 18.125V3.38375L18.9323 7.3175C19.0497 7.43486 19.2088 7.50079 19.3748 7.50079C19.5408 7.50079 19.7 7.43486 19.8173 7.3175C19.9347 7.20014 20.0006 7.04097 20.0006 6.875C20.0006 6.70903 19.9347 6.54986 19.8173 6.4325L14.8173 1.4325C14.7593 1.3743 14.6903 1.32812 14.6144 1.29661C14.5384 1.2651 14.457 1.24888 14.3748 1.24888C14.2926 1.24888 14.2112 1.2651 14.1353 1.29661C14.0593 1.32812 13.9904 1.3743 13.9323 1.4325L8.93231 6.4325C8.81495 6.54986 8.74902 6.70903 8.74902 6.875C8.74902 7.04097 8.81495 7.20014 8.93231 7.3175C9.04967 7.43486 9.20884 7.50079 9.37481 7.50079C9.54078 7.50079 9.69995 7.43486 9.81731 7.3175L13.7498 3.38375V18.125C13.7498 18.2908 13.8157 18.4497 13.9329 18.5669C14.0501 18.6842 14.2091 18.75 14.3748 18.75ZM5.62481 1.25C5.79057 1.25 5.94954 1.31585 6.06675 1.43306C6.18397 1.55027 6.24981 1.70924 6.24981 1.875V16.6162L10.1823 12.6825C10.2997 12.5651 10.4588 12.4992 10.6248 12.4992C10.7908 12.4992 10.95 12.5651 11.0673 12.6825C11.1847 12.7999 11.2506 12.959 11.2506 13.125C11.2506 13.291 11.1847 13.4501 11.0673 13.5675L6.06731 18.5675C6.00926 18.6257 5.94029 18.6719 5.86436 18.7034C5.78842 18.7349 5.70702 18.7511 5.62481 18.7511C5.5426 18.7511 5.4612 18.7349 5.38527 18.7034C5.30934 18.6719 5.24037 18.6257 5.18231 18.5675L0.182313 13.5675C0.0649546 13.4501 -0.000976566 13.291 -0.000976562 13.125C-0.000976559 12.959 0.0649546 12.7999 0.182313 12.6825C0.299671 12.5651 0.458843 12.4992 0.624813 12.4992C0.790783 12.4992 0.949955 12.5651 1.06731 12.6825L4.99981 16.6162V1.875C4.99981 1.70924 5.06566 1.55027 5.18287 1.43306C5.30008 1.31585 5.45905 1.25 5.62481 1.25Z" fill="#999999"/>
</g>
<defs>
<clipPath id="clip0_7_43">
<rect width="20" height="20" fill="white"/>
</clipPath>
</defs>
</svg>
