<svg width="37" height="37" viewBox="0 0 37 37" fill="none" xmlns="http://www.w3.org/2000/svg">
<rect x="0.5" y="0.5" width="35.2519" height="35.7522" rx="17.626" stroke="#B379ED"/>
<path fill-rule="evenodd" clip-rule="evenodd" d="M10.1836 14.1836C10.2417 14.1254 10.3106 14.0792 10.3866 14.0477C10.4625 14.0162 10.5439 14 10.6261 14C10.7083 14 10.7897 14.0162 10.8657 14.0477C10.9416 14.0792 11.0106 14.1254 11.0686 14.1836L18.1261 21.2424L25.1836 14.1836C25.2417 14.1255 25.3107 14.0794 25.3866 14.048C25.4626 14.0165 25.5439 14.0003 25.6261 14.0003C25.7083 14.0003 25.7897 14.0165 25.8656 14.048C25.9415 14.0794 26.0105 14.1255 26.0686 14.1836C26.1267 14.2417 26.1728 14.3107 26.2043 14.3866C26.2357 14.4626 26.2519 14.5439 26.2519 14.6261C26.2519 14.7083 26.2357 14.7897 26.2043 14.8656C26.1728 14.9415 26.1267 15.0105 26.0686 15.0686L18.5686 22.5686C18.5106 22.6268 18.4416 22.673 18.3657 22.7045C18.2897 22.736 18.2083 22.7522 18.1261 22.7522C18.0439 22.7522 17.9625 22.736 17.8866 22.7045C17.8106 22.673 17.7417 22.6268 17.6836 22.5686L10.1836 15.0686C10.1254 15.0106 10.0792 14.9416 10.0477 14.8657C10.0162 14.7897 10 14.7083 10 14.6261C10 14.5439 10.0162 14.4625 10.0477 14.3866C10.0792 14.3106 10.1254 14.2417 10.1836 14.1836Z" fill="#B379ED"/>
</svg>
