<svg width="20" height="20" viewBox="0 0 20 20" fill="none" xmlns="http://www.w3.org/2000/svg">
<path fill-rule="evenodd" clip-rule="evenodd" d="M2.05764 5.80749C2.1157 5.74928 2.18467 5.7031 2.2606 5.6716C2.33653 5.64009 2.41793 5.62387 2.50014 5.62387C2.58235 5.62387 2.66375 5.64009 2.73968 5.6716C2.81561 5.7031 2.88458 5.74928 2.94264 5.80749L10.0001 12.8662L17.0576 5.80749C17.1158 5.74938 17.1847 5.70328 17.2607 5.67183C17.3366 5.64038 17.418 5.6242 17.5001 5.6242C17.5823 5.6242 17.6637 5.64038 17.7396 5.67183C17.8155 5.70328 17.8845 5.74938 17.9426 5.80749C18.0007 5.8656 18.0468 5.93458 18.0783 6.01051C18.1097 6.08643 18.1259 6.16781 18.1259 6.24999C18.1259 6.33217 18.1097 6.41354 18.0783 6.48947C18.0468 6.56539 18.0007 6.63438 17.9426 6.69249L10.4426 14.1925C10.3846 14.2507 10.3156 14.2969 10.2397 14.3284C10.1638 14.3599 10.0823 14.3761 10.0001 14.3761C9.91793 14.3761 9.83653 14.3599 9.7606 14.3284C9.68467 14.2969 9.6157 14.2507 9.55764 14.1925L2.05764 6.69249C1.99944 6.63443 1.95326 6.56546 1.92175 6.48953C1.89024 6.4136 1.87402 6.3322 1.87402 6.24999C1.87402 6.16778 1.89024 6.08638 1.92175 6.01045C1.95326 5.93451 1.99944 5.86554 2.05764 5.80749Z" fill="#999999"/>
</svg>
