<svg width="20" height="20" viewBox="0 0 20 20" fill="none" xmlns="http://www.w3.org/2000/svg">
<path fill-rule="evenodd" clip-rule="evenodd" d="M17.9424 14.1925C17.8843 14.2507 17.8153 14.2969 17.7394 14.3284C17.6635 14.3599 17.5821 14.3761 17.4999 14.3761C17.4177 14.3761 17.3362 14.3599 17.2603 14.3284C17.1844 14.2969 17.1154 14.2507 17.0574 14.1925L9.99986 7.13376L2.94236 14.1925C2.88425 14.2506 2.81526 14.2967 2.73934 14.3282C2.66341 14.3596 2.58204 14.3758 2.49986 14.3758C2.41768 14.3758 2.3363 14.3596 2.26038 14.3282C2.18446 14.2967 2.11547 14.2506 2.05736 14.1925C1.99925 14.1344 1.95315 14.0654 1.92171 13.9895C1.89026 13.9136 1.87407 13.8322 1.87407 13.75C1.87407 13.6678 1.89026 13.5865 1.92171 13.5105C1.95315 13.4346 1.99925 13.3656 2.05736 13.3075L9.55736 5.80751C9.61542 5.74931 9.68439 5.70313 9.76032 5.67162C9.83625 5.64011 9.91765 5.6239 9.99986 5.6239C10.0821 5.6239 10.1635 5.64011 10.2394 5.67162C10.3153 5.70313 10.3843 5.74931 10.4424 5.80751L17.9424 13.3075C18.0006 13.3656 18.0467 13.4345 18.0782 13.5105C18.1098 13.5864 18.126 13.6678 18.126 13.75C18.126 13.8322 18.1098 13.9136 18.0782 13.9896C18.0467 14.0655 18.0006 14.1345 17.9424 14.1925Z" fill="#999999"/>
</svg>
