<svg width="20" height="20" viewBox="0 0 20 20" fill="none" xmlns="http://www.w3.org/2000/svg">
<g clip-path="url(#clip0_12_1880)">
<path d="M10 20C10.663 20 11.2989 19.7366 11.7678 19.2678C12.2366 18.7989 12.5 18.163 12.5 17.5H7.5C7.5 18.163 7.76339 18.7989 8.23223 19.2678C8.70107 19.7366 9.33696 20 10 20ZM10 2.3975L9.00375 2.59875C7.87348 2.82857 6.85743 3.44207 6.12775 4.33532C5.39807 5.22856 4.99965 6.34661 5 7.5C5 8.285 4.8325 10.2463 4.42625 12.1775C4.22625 13.1363 3.95625 14.135 3.5975 15H16.4025C16.0437 14.135 15.775 13.1375 15.5737 12.1775C15.1675 10.2463 15 8.285 15 7.5C15.0001 6.34682 14.6015 5.22907 13.8719 4.33609C13.1422 3.4431 12.1263 2.82977 10.9963 2.6L10 2.3975ZM17.775 15C18.0538 15.5588 18.3762 16.0013 18.75 16.25H1.25C1.62375 16.0013 1.94625 15.5588 2.225 15C3.35 12.75 3.75 8.6 3.75 7.5C3.75 4.475 5.9 1.95 8.75625 1.37375C8.7388 1.19994 8.75798 1.02441 8.81254 0.858469C8.8671 0.692528 8.95584 0.539865 9.07303 0.410325C9.19022 0.280786 9.33325 0.177246 9.49292 0.106383C9.65258 0.0355208 9.82532 -0.001091 10 -0.001091C10.1747 -0.001091 10.3474 0.0355208 10.5071 0.106383C10.6667 0.177246 10.8098 0.280786 10.927 0.410325C11.0442 0.539865 11.1329 0.692528 11.1875 0.858469C11.242 1.02441 11.2612 1.19994 11.2437 1.37375C12.6568 1.66069 13.9272 2.4274 14.8396 3.54392C15.752 4.66044 16.2503 6.0581 16.25 7.5C16.25 8.6 16.65 12.75 17.775 15Z" fill="#999999"/>
</g>
<defs>
<clipPath id="clip0_12_1880">
<rect width="20" height="20" fill="white"/>
</clipPath>
</defs>
</svg>
