<svg width="36" height="36" viewBox="0 0 36 36" fill="none" xmlns="http://www.w3.org/2000/svg">
<rect x="0.5" y="0.5" width="34.5" height="35.0011" rx="17.25" stroke="#B379ED"/>
<path d="M17.75 28.0011C18.413 28.0011 19.0489 27.7377 19.5178 27.2689C19.9866 26.8 20.25 26.1641 20.25 25.5011H15.25C15.25 26.1641 15.5134 26.8 15.9822 27.2689C16.4511 27.7377 17.087 28.0011 17.75 28.0011ZM17.75 10.3986L16.7537 10.5998C15.6235 10.8297 14.6074 11.4432 13.8778 12.3364C13.1481 13.2297 12.7497 14.3477 12.75 15.5011C12.75 16.2861 12.5825 18.2473 12.1762 20.1786C11.9762 21.1373 11.7062 22.1361 11.3475 23.0011H24.1525C23.7937 22.1361 23.525 21.1386 23.3237 20.1786C22.9175 18.2473 22.75 16.2861 22.75 15.5011C22.7501 14.3479 22.3515 13.2302 21.6219 12.3372C20.8922 11.4442 19.8763 10.8309 18.7463 10.6011L17.75 10.3986ZM25.525 23.0011C25.8038 23.5598 26.1262 24.0023 26.5 24.2511H9C9.37375 24.0023 9.69625 23.5598 9.975 23.0011C11.1 20.7511 11.5 16.6011 11.5 15.5011C11.5 12.4761 13.65 9.95109 16.5063 9.37484C16.4888 9.20104 16.508 9.0255 16.5625 8.85956C16.6171 8.69362 16.7058 8.54096 16.823 8.41142C16.9402 8.28188 17.0833 8.17834 17.2429 8.10747C17.4026 8.03661 17.5753 8 17.75 8C17.9247 8 18.0974 8.03661 18.2571 8.10747C18.4167 8.17834 18.5598 8.28188 18.677 8.41142C18.7942 8.54096 18.8829 8.69362 18.9375 8.85956C18.992 9.0255 19.0112 9.20104 18.9937 9.37484C20.4068 9.66178 21.6772 10.4285 22.5896 11.545C23.502 12.6615 24.0003 14.0592 24 15.5011C24 16.6011 24.4 20.7511 25.525 23.0011Z" fill="#B379ED"/>
</svg>
