<svg width="36" height="36" viewBox="0 0 36 36" fill="none" xmlns="http://www.w3.org/2000/svg">
<rect x="0.5" y="0.5" width="35" height="34.1161" rx="17.0581" stroke="#B379ED"/>
<path d="M25.5 9.25C25.8315 9.25 26.1495 9.3817 26.3839 9.61612C26.6183 9.85054 26.75 10.1685 26.75 10.5V20.5C26.75 20.8315 26.6183 21.1495 26.3839 21.3839C26.1495 21.6183 25.8315 21.75 25.5 21.75H13.5175C12.8545 21.7501 12.2187 22.0136 11.75 22.4825L9.25 24.9825V10.5C9.25 10.1685 9.3817 9.85054 9.61612 9.61612C9.85054 9.3817 10.1685 9.25 10.5 9.25H25.5ZM10.5 8C9.83696 8 9.20107 8.26339 8.73223 8.73223C8.26339 9.20107 8 9.83696 8 10.5V26.4913C8.00003 26.6149 8.03674 26.7358 8.1055 26.8386C8.17425 26.9414 8.27196 27.0215 8.38625 27.0687C8.50054 27.116 8.62628 27.1282 8.74755 27.104C8.86881 27.0797 8.98016 27.0201 9.0675 26.9325L12.6337 23.3663C12.8681 23.1318 13.186 23.0001 13.5175 23H25.5C26.163 23 26.7989 22.7366 27.2678 22.2678C27.7366 21.7989 28 21.163 28 20.5V10.5C28 9.83696 27.7366 9.20107 27.2678 8.73223C26.7989 8.26339 26.163 8 25.5 8H10.5Z" fill="#B379ED"/>
<path d="M14.25 15.5C14.25 15.8315 14.1183 16.1495 13.8839 16.3839C13.6495 16.6183 13.3315 16.75 13 16.75C12.6685 16.75 12.3505 16.6183 12.1161 16.3839C11.8817 16.1495 11.75 15.8315 11.75 15.5C11.75 15.1685 11.8817 14.8505 12.1161 14.6161C12.3505 14.3817 12.6685 14.25 13 14.25C13.3315 14.25 13.6495 14.3817 13.8839 14.6161C14.1183 14.8505 14.25 15.1685 14.25 15.5ZM19.25 15.5C19.25 15.8315 19.1183 16.1495 18.8839 16.3839C18.6495 16.6183 18.3315 16.75 18 16.75C17.6685 16.75 17.3505 16.6183 17.1161 16.3839C16.8817 16.1495 16.75 15.8315 16.75 15.5C16.75 15.1685 16.8817 14.8505 17.1161 14.6161C17.3505 14.3817 17.6685 14.25 18 14.25C18.3315 14.25 18.6495 14.3817 18.8839 14.6161C19.1183 14.8505 19.25 15.1685 19.25 15.5ZM24.25 15.5C24.25 15.8315 24.1183 16.1495 23.8839 16.3839C23.6495 16.6183 23.3315 16.75 23 16.75C22.6685 16.75 22.3505 16.6183 22.1161 16.3839C21.8817 16.1495 21.75 15.8315 21.75 15.5C21.75 15.1685 21.8817 14.8505 22.1161 14.6161C22.3505 14.3817 22.6685 14.25 23 14.25C23.3315 14.25 23.6495 14.3817 23.8839 14.6161C24.1183 14.8505 24.25 15.1685 24.25 15.5Z" fill="#B379ED"/>
</svg>
