<svg width="36" height="36" viewBox="0 0 36 36" fill="none" xmlns="http://www.w3.org/2000/svg">
<rect width="36" height="36" rx="18" fill="#615EFC"/>
<path d="M13.8076 13.8075C13.8657 13.7493 13.9347 13.7031 14.0106 13.6716C14.0865 13.6401 14.1679 13.6239 14.2501 13.6239C14.3323 13.6239 14.4138 13.6401 14.4897 13.6716C14.5656 13.7031 14.6346 13.7493 14.6926 13.8075L18.0001 17.1163L21.3076 13.8075C21.3657 13.7494 21.4347 13.7033 21.5107 13.6719C21.5866 13.6404 21.668 13.6242 21.7501 13.6242C21.8323 13.6242 21.9137 13.6404 21.9896 13.6719C22.0655 13.7033 22.1345 13.7494 22.1926 13.8075C22.2507 13.8656 22.2968 13.9346 22.3283 14.0105C22.3597 14.0865 22.3759 14.1678 22.3759 14.25C22.3759 14.3322 22.3597 14.4136 22.3283 14.4895C22.2968 14.5654 22.2507 14.6344 22.1926 14.6925L18.8839 18L22.1926 21.3075C22.2507 21.3656 22.2968 21.4346 22.3283 21.5105C22.3597 21.5865 22.3759 21.6678 22.3759 21.75C22.3759 21.8322 22.3597 21.9136 22.3283 21.9895C22.2968 22.0654 22.2507 22.1344 22.1926 22.1925C22.1345 22.2506 22.0655 22.2967 21.9896 22.3282C21.9137 22.3596 21.8323 22.3758 21.7501 22.3758C21.668 22.3758 21.5866 22.3596 21.5107 22.3282C21.4347 22.2967 21.3657 22.2506 21.3076 22.1925L18.0001 18.8838L14.6926 22.1925C14.6345 22.2506 14.5655 22.2967 14.4896 22.3282C14.4137 22.3596 14.3323 22.3758 14.2501 22.3758C14.168 22.3758 14.0866 22.3596 14.0107 22.3282C13.9347 22.2967 13.8658 22.2506 13.8076 22.1925C13.7495 22.1344 13.7034 22.0654 13.672 21.9895C13.6405 21.9136 13.6244 21.8322 13.6244 21.75C13.6244 21.6678 13.6405 21.5865 13.672 21.5105C13.7034 21.4346 13.7495 21.3656 13.8076 21.3075L17.1164 18L13.8076 14.6925C13.7494 14.6345 13.7033 14.5655 13.6717 14.4896C13.6402 14.4136 13.624 14.3322 13.624 14.25C13.624 14.1678 13.6402 14.0864 13.6717 14.0105C13.7033 13.9345 13.7494 13.8656 13.8076 13.8075Z" fill="#FDFDFD"/>
</svg>
