<svg width="388" height="198" viewBox="0 0 388 198" fill="none" xmlns="http://www.w3.org/2000/svg">
<path d="M249.741 5.81818V24H246.998V5.81818H249.741ZM263.741 13.6928L261.335 14.119C261.235 13.8112 261.075 13.5182 260.856 13.2401C260.643 12.9619 260.353 12.734 259.986 12.5565C259.619 12.3789 259.16 12.2901 258.61 12.2901C257.858 12.2901 257.231 12.4588 256.728 12.7962C256.225 13.1276 255.973 13.5567 255.973 14.0835C255.973 14.5392 256.142 14.9061 256.479 15.1843C256.816 15.4625 257.361 15.6903 258.113 15.8679L260.279 16.3651C261.533 16.6551 262.469 17.1019 263.084 17.7056C263.7 18.3093 264.007 19.0935 264.007 20.0582C264.007 20.875 263.771 21.603 263.297 22.2422C262.83 22.8755 262.176 23.3726 261.335 23.7337C260.501 24.0947 259.533 24.2752 258.432 24.2752C256.905 24.2752 255.659 23.9497 254.695 23.2987C253.73 22.6417 253.138 21.7095 252.919 20.5021L255.485 20.1115C255.645 20.7803 255.973 21.2863 256.47 21.6296C256.967 21.967 257.615 22.1357 258.414 22.1357C259.284 22.1357 259.98 21.9551 260.501 21.5941C261.022 21.2272 261.282 20.7803 261.282 20.2536C261.282 19.8274 261.122 19.4693 260.803 19.1793C260.489 18.8893 260.007 18.6703 259.355 18.5224L257.047 18.0163C255.775 17.7263 254.834 17.2647 254.224 16.6314C253.62 15.9981 253.319 15.1961 253.319 14.2255C253.319 13.4206 253.543 12.7163 253.993 12.1126C254.443 11.5089 255.065 11.0384 255.858 10.701C256.651 10.3577 257.559 10.1861 258.583 10.1861C260.057 10.1861 261.217 10.5057 262.063 11.1449C262.91 11.7782 263.469 12.6275 263.741 13.6928ZM272.67 24.2752C271.392 24.2752 270.276 23.9822 269.323 23.3963C268.37 22.8104 267.63 21.9906 267.104 20.9371C266.577 19.8836 266.313 18.6526 266.313 17.244C266.313 15.8294 266.577 14.5924 267.104 13.533C267.63 12.4736 268.37 11.6509 269.323 11.065C270.276 10.479 271.392 10.1861 272.67 10.1861C273.948 10.1861 275.064 10.479 276.017 11.065C276.97 11.6509 277.71 12.4736 278.236 13.533C278.763 14.5924 279.027 15.8294 279.027 17.244C279.027 18.6526 278.763 19.8836 278.236 20.9371C277.71 21.9906 276.97 22.8104 276.017 23.3963C275.064 23.9822 273.948 24.2752 272.67 24.2752ZM272.679 22.0469C273.507 22.0469 274.194 21.8279 274.739 21.3899C275.283 20.9519 275.686 20.369 275.946 19.641C276.212 18.913 276.345 18.111 276.345 17.2351C276.345 16.3651 276.212 15.5661 275.946 14.8381C275.686 14.1042 275.283 13.5153 274.739 13.0714C274.194 12.6275 273.507 12.4055 272.679 12.4055C271.844 12.4055 271.152 12.6275 270.601 13.0714C270.057 13.5153 269.652 14.1042 269.385 14.8381C269.125 15.5661 268.995 16.3651 268.995 17.2351C268.995 18.111 269.125 18.913 269.385 19.641C269.652 20.369 270.057 20.9519 270.601 21.3899C271.152 21.8279 271.844 22.0469 272.679 22.0469ZM288.355 10.3636V12.4943H280.906V10.3636H288.355ZM282.904 7.09659H285.558V19.9961C285.558 20.511 285.635 20.8987 285.789 21.1591C285.943 21.4136 286.141 21.5882 286.384 21.6829C286.633 21.7717 286.902 21.8161 287.192 21.8161C287.405 21.8161 287.591 21.8013 287.751 21.7717C287.911 21.7421 288.035 21.7184 288.124 21.7006L288.604 23.8935C288.45 23.9527 288.231 24.0118 287.947 24.071C287.662 24.1361 287.307 24.1716 286.881 24.1776C286.183 24.1894 285.532 24.0651 284.928 23.8047C284.324 23.5443 283.836 23.1418 283.463 22.5973C283.09 22.0528 282.904 21.3692 282.904 20.5465V7.09659ZM291.291 24V10.3636H293.946V24H291.291ZM292.632 8.25959C292.17 8.25959 291.774 8.1057 291.442 7.79794C291.117 7.48426 290.954 7.11139 290.954 6.67933C290.954 6.24136 291.117 5.86849 291.442 5.56072C291.774 5.24704 292.17 5.0902 292.632 5.0902C293.093 5.0902 293.487 5.24704 293.813 5.56072C294.144 5.86849 294.31 6.24136 294.31 6.67933C294.31 7.11139 294.144 7.48426 293.813 7.79794C293.487 8.1057 293.093 8.25959 292.632 8.25959ZM297.517 29.1136V10.3636H300.109V12.5742H300.331C300.485 12.2901 300.707 11.9616 300.997 11.5888C301.287 11.2159 301.689 10.8904 302.204 10.6122C302.719 10.3281 303.4 10.1861 304.246 10.1861C305.347 10.1861 306.33 10.4643 307.194 11.0206C308.058 11.5769 308.735 12.3789 309.227 13.4265C309.724 14.4741 309.972 15.7347 309.972 17.2085C309.972 18.6822 309.727 19.9458 309.236 20.9993C308.744 22.0469 308.07 22.8548 307.211 23.4229C306.353 23.9852 305.374 24.2663 304.273 24.2663C303.444 24.2663 302.767 24.1272 302.24 23.8491C301.719 23.5709 301.311 23.2454 301.015 22.8725C300.719 22.4996 300.491 22.1682 300.331 21.8782H300.171V29.1136H297.517ZM300.118 17.1818C300.118 18.1406 300.257 18.9811 300.535 19.7031C300.814 20.4252 301.216 20.9904 301.743 21.3988C302.269 21.8013 302.915 22.0025 303.678 22.0025C304.471 22.0025 305.134 21.7924 305.667 21.3722C306.199 20.946 306.602 20.369 306.874 19.641C307.152 18.913 307.291 18.0933 307.291 17.1818C307.291 16.2822 307.155 15.4743 306.883 14.7582C306.617 14.042 306.214 13.4768 305.676 13.0625C305.143 12.6482 304.477 12.4411 303.678 12.4411C302.909 12.4411 302.258 12.6393 301.725 13.0359C301.198 13.4324 300.799 13.9858 300.526 14.696C300.254 15.4062 300.118 16.2348 300.118 17.1818ZM318.691 24.2752C317.412 24.2752 316.296 23.9822 315.344 23.3963C314.391 22.8104 313.651 21.9906 313.124 20.9371C312.597 19.8836 312.334 18.6526 312.334 17.244C312.334 15.8294 312.597 14.5924 313.124 13.533C313.651 12.4736 314.391 11.6509 315.344 11.065C316.296 10.479 317.412 10.1861 318.691 10.1861C319.969 10.1861 321.085 10.479 322.037 11.065C322.99 11.6509 323.73 12.4736 324.257 13.533C324.784 14.5924 325.047 15.8294 325.047 17.244C325.047 18.6526 324.784 19.8836 324.257 20.9371C323.73 21.9906 322.99 22.8104 322.037 23.3963C321.085 23.9822 319.969 24.2752 318.691 24.2752ZM318.699 22.0469C319.528 22.0469 320.215 21.8279 320.759 21.3899C321.304 20.9519 321.706 20.369 321.966 19.641C322.233 18.913 322.366 18.111 322.366 17.2351C322.366 16.3651 322.233 15.5661 321.966 14.8381C321.706 14.1042 321.304 13.5153 320.759 13.0714C320.215 12.6275 319.528 12.4055 318.699 12.4055C317.865 12.4055 317.172 12.6275 316.622 13.0714C316.077 13.5153 315.672 14.1042 315.406 14.8381C315.145 15.5661 315.015 16.3651 315.015 17.2351C315.015 18.111 315.145 18.913 315.406 19.641C315.672 20.369 316.077 20.9519 316.622 21.3899C317.172 21.8279 317.865 22.0469 318.699 22.0469Z" fill="black"/>
<rect x="0.5" y="44.5" width="387" height="130" rx="4.5" stroke="#9747FF" stroke-dasharray="10 5"/>
<path d="M102.572 112.26H94.639V125.893H90.163V92.1207H101.343C105.145 92.1207 108.072 92.9885 110.12 94.7228C112.169 96.4571 113.194 98.9816 113.194 102.295C113.194 104.401 112.625 106.237 111.489 107.801C110.353 109.365 108.772 110.534 106.747 111.308L114.678 125.615V125.893H109.901L102.572 112.26ZM94.6395 108.603H101.482C103.693 108.603 105.452 108.03 106.758 106.884C108.064 105.738 108.718 104.204 108.718 102.283C108.718 100.192 108.095 98.5894 106.85 97.4738C105.606 96.3591 103.808 95.7936 101.458 95.7781H94.639V108.603H94.6395Z" fill="black"/>
<path d="M43.3366 112.688V125.893H38.8837V92.1205H51.3388C55.0335 92.1205 57.9285 93.0646 60.0241 94.9527C62.1191 96.8408 63.1673 99.3405 63.1673 102.451C63.1673 105.731 62.1422 108.258 60.0941 110.03C58.046 111.802 55.1119 112.688 51.2928 112.688H43.3366ZM43.3366 109.03H51.3388C53.7198 109.03 55.5441 108.47 56.8116 107.348C58.0792 106.226 58.7139 104.605 58.7139 102.485C58.7139 100.473 58.0792 98.8645 56.8116 97.6576C55.5441 96.4507 53.8044 95.8245 51.5933 95.7775H43.3366V109.03Z" fill="black"/>
<path d="M132.509 117.058H118.362L115.184 125.893H110.592L123.487 92.1202H127.383L140.302 125.893H135.733L132.509 117.058ZM119.706 113.4H131.187L125.435 97.6179L119.706 113.4Z" fill="black"/>
<mask id="mask0_6_142" style="mask-type:luminance" maskUnits="userSpaceOnUse" x="60" y="92" width="35" height="34">
<path d="M83.9347 102.668C82.313 101.047 80.0717 100.043 77.5963 100.043C75.121 100.043 72.8796 101.047 71.2579 102.668C69.6362 104.29 68.6328 106.531 68.6328 109.007C68.6328 111.482 69.6362 113.723 71.2579 115.345C72.8796 116.967 75.121 117.97 77.5963 117.97C80.0717 117.97 82.313 116.967 83.9347 115.345C85.5564 113.723 86.5599 111.482 86.5599 109.007C86.5599 106.531 85.5569 104.29 83.9347 102.668ZM77.5963 92.1207C82.2589 92.1207 86.4805 94.011 89.5365 97.0665C92.592 100.122 94.4823 104.344 94.4823 109.007C94.4823 113.669 92.592 117.891 89.5365 120.947C86.4805 124.002 82.2589 125.893 77.5963 125.893C72.9337 125.893 68.7121 124.002 65.6562 120.947C62.6006 117.891 60.7099 113.669 60.7099 109.007C60.7099 104.344 62.6002 100.122 65.6562 97.0665C68.7121 94.011 72.9342 92.1207 77.5963 92.1207Z" fill="white"/>
</mask>
<g mask="url(#mask0_6_142)">
<path d="M94.4826 92.1207H60.7102V125.893H94.4826V92.1207Z" fill="url(#paint0_linear_6_142)"/>
</g>
<mask id="mask1_6_142" style="mask-type:luminance" maskUnits="userSpaceOnUse" x="269" y="92" width="34" height="34">
<path d="M292.225 102.548C290.603 100.926 288.362 99.9224 285.886 99.9224C283.411 99.9224 281.17 100.926 279.548 102.548C277.926 104.169 276.923 106.411 276.923 108.886C276.923 111.361 277.926 113.603 279.548 115.224C281.17 116.846 283.411 117.85 285.886 117.85C288.362 117.85 290.603 116.846 292.225 115.224C293.847 113.603 294.85 111.361 294.85 108.886C294.85 106.41 293.847 104.169 292.225 102.548ZM285.886 92C290.549 92 294.771 93.8903 297.827 96.9458C300.882 100.002 302.772 104.223 302.772 108.886C302.772 113.549 300.882 117.77 297.827 120.826C294.771 123.882 290.549 125.772 285.886 125.772C281.224 125.772 277.002 123.882 273.946 120.826C270.891 117.77 269 113.549 269 108.886C269 104.223 270.89 100.002 273.946 96.9458C277.002 93.8903 281.224 92 285.886 92Z" fill="white"/>
</mask>
<g mask="url(#mask1_6_142)">
<path d="M302.773 92H269V125.772H302.773V92Z" fill="url(#paint1_linear_6_142)"/>
</g>
<g filter="url(#filter0_d_6_142)">
<line x1="181.5" y1="189.026" x2="181.5" y2="15" stroke="url(#paint2_linear_6_142)" stroke-width="3" stroke-dasharray="6 6"/>
</g>
<defs>
<filter id="filter0_d_6_142" x="176" y="15" width="11" height="182.026" filterUnits="userSpaceOnUse" color-interpolation-filters="sRGB">
<feFlood flood-opacity="0" result="BackgroundImageFix"/>
<feColorMatrix in="SourceAlpha" type="matrix" values="0 0 0 0 0 0 0 0 0 0 0 0 0 0 0 0 0 0 127 0" result="hardAlpha"/>
<feOffset dy="4"/>
<feGaussianBlur stdDeviation="2"/>
<feComposite in2="hardAlpha" operator="out"/>
<feColorMatrix type="matrix" values="0 0 0 0 0 0 0 0 0 0 0 0 0 0 0 0 0 0 0.25 0"/>
<feBlend mode="normal" in2="BackgroundImageFix" result="effect1_dropShadow_6_142"/>
<feBlend mode="normal" in="SourceGraphic" in2="effect1_dropShadow_6_142" result="shape"/>
</filter>
<linearGradient id="paint0_linear_6_142" x1="60.4386" y1="126.182" x2="94.4745" y2="92.1108" gradientUnits="userSpaceOnUse">
<stop stop-color="#12C2E9"/>
<stop offset="0.4517" stop-color="#B379ED"/>
<stop offset="1" stop-color="#F64F59"/>
</linearGradient>
<linearGradient id="paint1_linear_6_142" x1="268.729" y1="126.061" x2="302.765" y2="91.9901" gradientUnits="userSpaceOnUse">
<stop stop-color="#12C2E9"/>
<stop offset="0.4517" stop-color="#B379ED"/>
<stop offset="1" stop-color="#F64F59"/>
</linearGradient>
<linearGradient id="paint2_linear_6_142" x1="184.111" y1="208.09" x2="180.998" y2="208.062" gradientUnits="userSpaceOnUse">
<stop stop-color="#12C2E9"/>
<stop offset="0.45" stop-color="#B379ED"/>
<stop offset="1" stop-color="#F64F59"/>
</linearGradient>
</defs>
</svg>
