<svg width="32" height="32" viewBox="0 0 32 32" fill="none" xmlns="http://www.w3.org/2000/svg">
<rect width="32" height="32" rx="16" fill="#615EFC"/>
<g clip-path="url(#clip0_132_40558)">
<path fill-rule="evenodd" clip-rule="evenodd" d="M12 10C12 9.46957 12.2107 8.96086 12.5858 8.58579C12.9609 8.21071 13.4696 8 14 8H22C22.5304 8 23.0391 8.21071 23.4142 8.58579C23.7893 8.96086 24 9.46957 24 10V18C24 18.5304 23.7893 19.0391 23.4142 19.4142C23.0391 19.7893 22.5304 20 22 20H14C13.4696 20 12.9609 19.7893 12.5858 19.4142C12.2107 19.0391 12 18.5304 12 18V10ZM14 9C13.7348 9 13.4804 9.10536 13.2929 9.29289C13.1054 9.48043 13 9.73478 13 10V18C13 18.2652 13.1054 18.5196 13.2929 18.7071C13.4804 18.8946 13.7348 19 14 19H22C22.2652 19 22.5196 18.8946 22.7071 18.7071C22.8946 18.5196 23 18.2652 23 18V10C23 9.73478 22.8946 9.48043 22.7071 9.29289C22.5196 9.10536 22.2652 9 22 9H14ZM10 13C9.73478 13 9.48043 13.1054 9.29289 13.2929C9.10536 13.4804 9 13.7348 9 14V22C9 22.2652 9.10536 22.5196 9.29289 22.7071C9.48043 22.8946 9.73478 23 10 23H18C18.2652 23 18.5196 22.8946 18.7071 22.7071C18.8946 22.5196 19 22.2652 19 22V21H20V22C20 22.5304 19.7893 23.0391 19.4142 23.4142C19.0391 23.7893 18.5304 24 18 24H10C9.46957 24 8.96086 23.7893 8.58579 23.4142C8.21071 23.0391 8 22.5304 8 22V14C8 13.4696 8.21071 12.9609 8.58579 12.5858C8.96086 12.2107 9.46957 12 10 12H11V13H10Z" fill="#FDFDFD"/>
</g>
<defs>
<clipPath id="clip0_132_40558">
<rect width="16" height="16" fill="white" transform="translate(8 8)"/>
</clipPath>
</defs>
</svg>
