<svg width="36" height="36" viewBox="0 0 36 36" fill="none" xmlns="http://www.w3.org/2000/svg">
<rect width="36" height="36" rx="18" fill="#615EFC"/>
<path fill-rule="evenodd" clip-rule="evenodd" d="M8 8H9.25V26.75H28V28H8V8ZM20.5 12.375C20.5 12.2092 20.5658 12.0503 20.6831 11.9331C20.8003 11.8158 20.9592 11.75 21.125 11.75H26.125C26.2908 11.75 26.4497 11.8158 26.5669 11.9331C26.6842 12.0503 26.75 12.2092 26.75 12.375V17.375C26.75 17.5408 26.6842 17.6997 26.5669 17.8169C26.4497 17.9342 26.2908 18 26.125 18C25.9592 18 25.8003 17.9342 25.6831 17.8169C25.5658 17.6997 25.5 17.5408 25.5 17.375V14.125L20.9838 19.6463C20.9285 19.7137 20.8597 19.7689 20.7818 19.8082C20.7039 19.8475 20.6186 19.87 20.5315 19.8744C20.4444 19.8787 20.3573 19.8648 20.2759 19.8335C20.1945 19.8022 20.1205 19.7541 20.0588 19.6925L16.825 16.4587L12.255 22.7425C12.155 22.8696 12.0097 22.953 11.8495 22.9752C11.6893 22.9974 11.5267 22.9567 11.396 22.8615C11.2652 22.7663 11.1764 22.6242 11.1483 22.4649C11.1201 22.3057 11.1548 22.1417 11.245 22.0075L16.245 15.1325C16.2981 15.0594 16.3664 14.9987 16.4452 14.9545C16.524 14.9103 16.6114 14.8837 16.7015 14.8766C16.7915 14.8695 16.8821 14.882 16.9668 14.9132C17.0516 14.9444 17.1286 14.9937 17.1925 15.0575L20.4538 18.32L24.8062 13H21.125C20.9592 13 20.8003 12.9342 20.6831 12.8169C20.5658 12.6997 20.5 12.5408 20.5 12.375Z" fill="#FDFDFD"/>
</svg>
