<svg width="37" height="36" viewBox="0 0 37 36" fill="none" xmlns="http://www.w3.org/2000/svg">
<rect x="0.5" y="0.5" width="36" height="35" rx="17.5" stroke="#B379ED"/>
<path d="M15.375 16.75C15.2092 16.75 15.0503 16.8158 14.9331 16.9331C14.8158 17.0503 14.75 17.2092 14.75 17.375C14.75 17.5408 14.8158 17.6997 14.9331 17.8169C15.0503 17.9342 15.2092 18 15.375 18H21.625C21.7908 18 21.9497 17.9342 22.0669 17.8169C22.1842 17.6997 22.25 17.5408 22.25 17.375C22.25 17.2092 22.1842 17.0503 22.0669 16.9331C21.9497 16.8158 21.7908 16.75 21.625 16.75H15.375ZM14.75 19.875C14.75 19.7092 14.8158 19.5503 14.9331 19.4331C15.0503 19.3158 15.2092 19.25 15.375 19.25H21.625C21.7908 19.25 21.9497 19.3158 22.0669 19.4331C22.1842 19.5503 22.25 19.7092 22.25 19.875C22.25 20.0408 22.1842 20.1997 22.0669 20.3169C21.9497 20.4342 21.7908 20.5 21.625 20.5H15.375C15.2092 20.5 15.0503 20.4342 14.9331 20.3169C14.8158 20.1997 14.75 20.0408 14.75 19.875ZM14.75 22.375C14.75 22.2092 14.8158 22.0503 14.9331 21.9331C15.0503 21.8158 15.2092 21.75 15.375 21.75H17.875C18.0408 21.75 18.1997 21.8158 18.3169 21.9331C18.4342 22.0503 18.5 22.2092 18.5 22.375C18.5 22.5408 18.4342 22.6997 18.3169 22.8169C18.1997 22.9342 18.0408 23 17.875 23H15.375C15.2092 23 15.0503 22.9342 14.9331 22.8169C14.8158 22.6997 14.75 22.5408 14.75 22.375Z" fill="#B379ED"/>
<path d="M20.375 8H13.5C12.837 8 12.2011 8.26339 11.7322 8.73223C11.2634 9.20107 11 9.83696 11 10.5V25.5C11 26.163 11.2634 26.7989 11.7322 27.2678C12.2011 27.7366 12.837 28 13.5 28H23.5C24.163 28 24.7989 27.7366 25.2678 27.2678C25.7366 26.7989 26 26.163 26 25.5V13.625L20.375 8ZM20.375 9.25V11.75C20.375 12.2473 20.5725 12.7242 20.9242 13.0758C21.2758 13.4275 21.7527 13.625 22.25 13.625H24.75V25.5C24.75 25.8315 24.6183 26.1495 24.3839 26.3839C24.1495 26.6183 23.8315 26.75 23.5 26.75H13.5C13.1685 26.75 12.8505 26.6183 12.6161 26.3839C12.3817 26.1495 12.25 25.8315 12.25 25.5V10.5C12.25 10.1685 12.3817 9.85054 12.6161 9.61612C12.8505 9.3817 13.1685 9.25 13.5 9.25H20.375Z" fill="#B379ED"/>
</svg>
