<svg width="36" height="35" viewBox="0 0 36 35" fill="none" xmlns="http://www.w3.org/2000/svg">
<rect width="36" height="35" rx="17.5" fill="#B379ED"/>
<path d="M8 12.5C8 11.837 8.26339 11.2011 8.73223 10.7322C9.20107 10.2634 9.83696 10 10.5 10H25.5C26.163 10 26.7989 10.2634 27.2678 10.7322C27.7366 11.2011 28 11.837 28 12.5V22.5C28 23.163 27.7366 23.7989 27.2678 24.2678C26.7989 24.7366 26.163 25 25.5 25H10.5C9.83696 25 9.20107 24.7366 8.73223 24.2678C8.26339 23.7989 8 23.163 8 22.5V12.5ZM10.5 11.25C10.1685 11.25 9.85054 11.3817 9.61612 11.6161C9.3817 11.8505 9.25 12.1685 9.25 12.5V12.7713L18 18.0212L26.75 12.7713V12.5C26.75 12.1685 26.6183 11.8505 26.3839 11.6161C26.1495 11.3817 25.8315 11.25 25.5 11.25H10.5ZM26.75 14.2287L20.865 17.76L26.75 21.3812V14.2287ZM26.7075 22.8237L19.6575 18.485L18 19.4788L16.3425 18.485L9.2925 22.8225C9.36353 23.0885 9.5204 23.3236 9.73874 23.4913C9.95708 23.659 10.2247 23.75 10.5 23.75H25.5C25.7752 23.75 26.0426 23.6593 26.261 23.4918C26.4793 23.3243 26.6362 23.0895 26.7075 22.8237ZM9.25 21.3812L15.135 17.76L9.25 14.2287V21.3812Z" fill="#FDFDFD"/>
</svg>
