<svg width="20" height="20" viewBox="0 0 20 20" fill="none" xmlns="http://www.w3.org/2000/svg">
<g clip-path="url(#clip0_7_337)">
<path d="M3.58277 18.5625C3.48527 19.1175 4.03277 19.5512 4.51527 19.3037L10.0028 16.4837L15.489 19.3037C15.9715 19.5512 16.519 19.1175 16.4215 18.5637L15.384 12.6512L19.7865 8.45625C20.199 8.06375 19.9865 7.34625 19.434 7.26875L13.3115 6.39875L10.5815 0.989995C10.5295 0.880356 10.4475 0.787724 10.3449 0.722861C10.2423 0.657998 10.1235 0.623566 10.0021 0.623566C9.8808 0.623566 9.76194 0.657998 9.65938 0.722861C9.55682 0.787724 9.47478 0.880356 9.42277 0.989995L6.69277 6.4L0.57027 7.27C0.0190199 7.3475 -0.19473 8.065 0.21652 8.4575L4.62027 12.6525L3.58277 18.565V18.5625ZM9.71402 15.1037L5.10652 17.4712L5.97402 12.525C5.9949 12.4111 5.98722 12.2939 5.95166 12.1837C5.9161 12.0735 5.85378 11.9739 5.77027 11.8937L2.13777 8.43125L7.20277 7.71125C7.30748 7.6949 7.40674 7.65368 7.49222 7.59104C7.57769 7.5284 7.6469 7.44617 7.69402 7.35125L10.0003 2.77875L12.309 7.35125C12.3561 7.44617 12.4253 7.5284 12.5108 7.59104C12.5963 7.65368 12.6956 7.6949 12.8003 7.71125L17.8653 8.43L14.2328 11.8925C14.1491 11.9728 14.0866 12.0726 14.0511 12.183C14.0155 12.2934 14.0079 12.4109 14.029 12.525L14.8965 17.4712L10.289 15.1037C10.2 15.0575 10.1012 15.0334 10.0009 15.0334C9.9006 15.0334 9.80302 15.0575 9.71402 15.1037Z" fill="#999999"/>
</g>
<defs>
<clipPath id="clip0_7_337">
<rect width="20" height="20" fill="white"/>
</clipPath>
</defs>
</svg>
