<svg width="36" height="37" viewBox="0 0 36 37" fill="none" xmlns="http://www.w3.org/2000/svg">
<rect x="0.5" y="0.5" width="35.0004" height="35.7514" rx="17.5002" stroke="#B379ED"/>
<path d="M11.5808 26.9389C11.4833 27.4939 12.0308 27.9277 12.5133 27.6802L18.0008 24.8602L23.4871 27.6802C23.9696 27.9277 24.5171 27.4939 24.4196 26.9402L23.3821 21.0277L27.7846 16.8327C28.1971 16.4402 27.9846 15.7227 27.4321 15.6452L21.3096 14.7752L18.5796 9.36643C18.5276 9.25679 18.4455 9.16416 18.343 9.0993C18.2404 9.03443 18.1215 9 18.0002 9C17.8788 9 17.76 9.03443 17.6574 9.0993C17.5549 9.16416 17.4728 9.25679 17.4208 9.36643L14.6908 14.7764L8.56832 15.6464C8.01707 15.7239 7.80332 16.4414 8.21457 16.8339L12.6183 21.0289L11.5808 26.9414V26.9389ZM17.7121 23.4802L13.1046 25.8477L13.9721 20.9014C13.9929 20.7876 13.9853 20.6703 13.9497 20.5601C13.9142 20.45 13.8518 20.3503 13.7683 20.2702L10.1358 16.8077L15.2008 16.0877C15.3055 16.0713 15.4048 16.0301 15.4903 15.9675C15.5757 15.9048 15.6449 15.8226 15.6921 15.7277L17.9983 11.1552L20.3071 15.7277C20.3542 15.8226 20.4234 15.9048 20.5089 15.9675C20.5944 16.0301 20.6936 16.0713 20.7983 16.0877L25.8633 16.8064L22.2308 20.2689C22.1471 20.3492 22.0847 20.4491 22.0491 20.5595C22.0135 20.6699 22.006 20.7874 22.0271 20.9014L22.8946 25.8477L18.2871 23.4802C18.1981 23.4339 18.0992 23.4098 17.9989 23.4098C17.8986 23.4098 17.8011 23.4339 17.7121 23.4802Z" fill="#B379ED"/>
</svg>
