<svg width="48" height="48" viewBox="0 0 48 48" fill="none" xmlns="http://www.w3.org/2000/svg">
<mask id="mask0_6_264" style="mask-type:luminance" maskUnits="userSpaceOnUse" x="7" y="7" width="34" height="34">
<path d="M30.2248 17.5476C28.6031 15.9259 26.3618 14.9224 23.8864 14.9224C21.4111 14.9224 19.1697 15.9259 17.548 17.5476C15.9263 19.1693 14.9229 21.4106 14.9229 23.886C14.9229 26.3613 15.9263 28.6027 17.548 30.2244C19.1697 31.8461 21.4111 32.8495 23.8864 32.8495C26.3618 32.8495 28.6031 31.8461 30.2248 30.2244C31.8465 28.6027 32.85 26.3613 32.85 23.886C32.85 21.4102 31.847 19.1693 30.2248 17.5476ZM23.8864 7C28.549 7 32.7706 8.8903 35.8266 11.9458C38.8821 15.0018 40.7724 19.2234 40.7724 23.886C40.7724 28.5486 38.8821 32.7702 35.8266 35.8261C32.7706 38.8817 28.549 40.772 23.8864 40.772C19.2238 40.772 15.0022 38.8817 11.9463 35.8261C8.89075 32.7702 7 28.5486 7 23.886C7 19.2234 8.8903 15.0018 11.9463 11.9458C15.0022 8.8903 19.2243 7 23.8864 7Z" fill="white"/>
</mask>
<g mask="url(#mask0_6_264)">
<path d="M40.7727 7H7.00031V40.7724H40.7727V7Z" fill="#615EFC"/>
<path d="M35.5212 12.6177L30.4849 12.0278L29.1316 16.9146" stroke="#FDFDFD" stroke-width="2" stroke-linecap="round" stroke-linejoin="round"/>
<path d="M11.2901 34.1786L15.802 33.9849L17.6831 29.8793" stroke="#FDFDFD" stroke-width="2" stroke-linecap="round" stroke-linejoin="round"/>
</g>
</svg>
