<svg width="36" height="35" viewBox="0 0 36 35" fill="none" xmlns="http://www.w3.org/2000/svg">
<rect width="36" height="35" rx="17.5" fill="#B379ED"/>
<path d="M26.75 25C26.75 25 28 25 28 23.75C28 22.5 26.75 18.75 21.75 18.75C16.75 18.75 15.5 22.5 15.5 23.75C15.5 25 16.75 25 16.75 25H26.75ZM16.7775 23.75L16.75 23.745C16.7513 23.415 16.9588 22.4575 17.7 21.595C18.39 20.7863 19.6025 20 21.75 20C23.8962 20 25.1087 20.7875 25.8 21.595C26.5413 22.4575 26.7475 23.4163 26.75 23.745L26.74 23.7475L26.7225 23.75H16.7775ZM21.75 16.25C22.413 16.25 23.0489 15.9866 23.5178 15.5178C23.9866 15.0489 24.25 14.413 24.25 13.75C24.25 13.087 23.9866 12.4511 23.5178 11.9822C23.0489 11.5134 22.413 11.25 21.75 11.25C21.087 11.25 20.4511 11.5134 19.9822 11.9822C19.5134 12.4511 19.25 13.087 19.25 13.75C19.25 14.413 19.5134 15.0489 19.9822 15.5178C20.4511 15.9866 21.087 16.25 21.75 16.25ZM25.5 13.75C25.5 14.2425 25.403 14.7301 25.2145 15.1851C25.0261 15.64 24.7499 16.0534 24.4017 16.4017C24.0534 16.7499 23.64 17.0261 23.1851 17.2145C22.7301 17.403 22.2425 17.5 21.75 17.5C21.2575 17.5 20.7699 17.403 20.3149 17.2145C19.86 17.0261 19.4466 16.7499 19.0983 16.4017C18.7501 16.0534 18.4739 15.64 18.2855 15.1851C18.097 14.7301 18 14.2425 18 13.75C18 12.7554 18.3951 11.8016 19.0983 11.0983C19.8016 10.3951 20.7554 10 21.75 10C22.7446 10 23.6984 10.3951 24.4017 11.0983C25.1049 11.8016 25.5 12.7554 25.5 13.75ZM16.67 19.1C16.1697 18.9436 15.6544 18.8402 15.1325 18.7913C14.8392 18.7626 14.5447 18.7489 14.25 18.75C9.25 18.75 8 22.5 8 23.75C8 24.5833 8.41667 25 9.25 25H14.52C14.3348 24.6097 14.2424 24.1819 14.25 23.75C14.25 22.4875 14.7213 21.1975 15.6125 20.12C15.9163 19.7525 16.27 19.4087 16.67 19.1ZM14.15 20C13.4107 21.1118 13.0111 22.4148 13 23.75H9.25C9.25 23.425 9.455 22.4625 10.2 21.595C10.8812 20.8 12.065 20.025 14.15 20.0013V20ZM9.875 14.375C9.875 13.3804 10.2701 12.4266 10.9733 11.7233C11.6766 11.0201 12.6304 10.625 13.625 10.625C14.6196 10.625 15.5734 11.0201 16.2767 11.7233C16.9799 12.4266 17.375 13.3804 17.375 14.375C17.375 15.3696 16.9799 16.3234 16.2767 17.0267C15.5734 17.7299 14.6196 18.125 13.625 18.125C12.6304 18.125 11.6766 17.7299 10.9733 17.0267C10.2701 16.3234 9.875 15.3696 9.875 14.375ZM13.625 11.875C12.962 11.875 12.3261 12.1384 11.8572 12.6072C11.3884 13.0761 11.125 13.712 11.125 14.375C11.125 15.038 11.3884 15.6739 11.8572 16.1428C12.3261 16.6116 12.962 16.875 13.625 16.875C14.288 16.875 14.9239 16.6116 15.3928 16.1428C15.8616 15.6739 16.125 15.038 16.125 14.375C16.125 13.712 15.8616 13.0761 15.3928 12.6072C14.9239 12.1384 14.288 11.875 13.625 11.875Z" fill="#FDFDFD"/>
</svg>
