<svg width="36" height="36" viewBox="0 0 36 36" fill="none" xmlns="http://www.w3.org/2000/svg">
<rect x="0.5" y="0.5" width="35" height="35" rx="17.5" stroke="#615EFC"/>
<path d="M17.375 9.25V18H18.625V9.25H17.375Z" fill="#615EFC"/>
<path d="M11.7505 19.015C11.7503 17.8987 12.0491 16.8028 12.6158 15.8411C13.1825 14.8793 13.9964 14.087 14.973 13.5462L14.3667 12.4537C12.9174 13.2563 11.7745 14.5162 11.1167 16.0367C10.4588 17.5572 10.3229 19.2528 10.7302 20.8586C11.1374 22.4645 12.065 23.8904 13.368 24.9136C14.6709 25.9368 16.2761 26.4998 17.9327 26.5146C19.5894 26.5295 21.2043 25.9954 22.5255 24.9957C23.8466 23.9961 24.7996 22.5871 25.2356 20.9888C25.6716 19.3905 25.5662 17.6928 24.9357 16.1607C24.3052 14.6286 23.1852 13.3484 21.7505 12.52L21.1242 13.6012C22.0745 14.1496 22.8637 14.9384 23.4125 15.8885C23.9612 16.8385 24.2502 17.9163 24.2505 19.0134C24.2507 20.1106 23.962 21.1885 23.4136 22.1387C22.8652 23.089 22.0763 23.8781 21.1262 24.4268C20.1762 24.9755 19.0984 25.2645 18.0012 25.2646C16.9041 25.2648 15.8262 24.9761 14.876 24.4276C13.9258 23.8791 13.1367 23.0902 12.588 22.1401C12.0394 21.1899 11.7505 20.1121 11.7505 19.015Z" fill="#615EFC"/>
</svg>
