<svg width="20" height="20" viewBox="0 0 20 20" fill="none" xmlns="http://www.w3.org/2000/svg">
<path d="M9.375 1.25V10H10.625V1.25H9.375Z" fill="#999999"/>
<path d="M3.75045 11.015C3.75028 9.89872 4.04907 8.80278 4.61577 7.84106C5.18247 6.87935 5.99639 6.08695 6.97295 5.54624L6.3667 4.45374C4.91736 5.25632 3.77455 6.51621 3.11667 8.03671C2.45879 9.55721 2.32288 11.2528 2.73016 12.8586C3.13743 14.4645 4.06496 15.8904 5.36795 16.9136C6.67094 17.9368 8.27606 18.4998 9.93271 18.5146C11.5894 18.5295 13.2043 17.9954 14.5255 16.9957C15.8466 15.9961 16.7996 14.5871 17.2356 12.9888C17.6716 11.3905 17.5662 9.69276 16.9357 8.1607C16.3052 6.62864 15.1852 5.34845 13.7505 4.51999L13.1242 5.60124C14.0745 6.14959 14.8637 6.93844 15.4125 7.88848C15.9612 8.83853 16.2502 9.91629 16.2505 11.0134C16.2507 12.1106 15.962 13.1885 15.4136 14.1387C14.8652 15.089 14.0763 15.8781 13.1262 16.4268C12.1762 16.9755 11.0984 17.2645 10.0012 17.2646C8.90407 17.2648 7.82622 16.9761 6.876 16.4276C5.92579 15.8791 5.1367 15.0902 4.58804 14.1401C4.03939 13.1899 3.75052 12.1121 3.75045 11.015Z" fill="#999999"/>
</svg>
