<svg width="36" height="36" viewBox="0 0 36 36" fill="none" xmlns="http://www.w3.org/2000/svg">
<rect width="36" height="36" rx="18" fill="#B379ED"/>
<path d="M21.5673 18.1825C21.6255 18.2405 21.6717 18.3095 21.7032 18.3854C21.7347 18.4614 21.7509 18.5428 21.7509 18.625C21.7509 18.7072 21.7347 18.7886 21.7032 18.8645C21.6717 18.9405 21.6255 19.0094 21.5673 19.0675L17.8173 22.8175C17.7593 22.8757 17.6903 22.9219 17.6144 22.9534C17.5384 22.9849 17.457 23.0011 17.3748 23.0011C17.2926 23.0011 17.2112 22.9849 17.1353 22.9534C17.0593 22.9219 16.9904 22.8757 16.9323 22.8175L15.0573 20.9425C14.9992 20.8844 14.9531 20.8154 14.9217 20.7395C14.8902 20.6635 14.874 20.5822 14.874 20.5C14.874 20.4178 14.8902 20.3364 14.9217 20.2605C14.9531 20.1846 14.9992 20.1156 15.0573 20.0575C15.1747 19.9401 15.3338 19.8742 15.4998 19.8742C15.582 19.8742 15.6634 19.8904 15.7393 19.9218C15.8152 19.9533 15.8842 19.9994 15.9423 20.0575L17.3748 21.4912L20.6823 18.1825C20.7404 18.1243 20.8093 18.0781 20.8853 18.0466C20.9612 18.0151 21.0426 17.9989 21.1248 17.9989C21.207 17.9989 21.2884 18.0151 21.3644 18.0466C21.4403 18.0781 21.5093 18.1243 21.5673 18.1825Z" fill="#FDFDFD"/>
<path d="M12.375 8C12.5408 8 12.6997 8.06585 12.8169 8.18306C12.9342 8.30027 13 8.45924 13 8.625V9.25H23V8.625C23 8.45924 23.0658 8.30027 23.1831 8.18306C23.3003 8.06585 23.4592 8 23.625 8C23.7908 8 23.9497 8.06585 24.0669 8.18306C24.1842 8.30027 24.25 8.45924 24.25 8.625V9.25H25.5C26.163 9.25 26.7989 9.51339 27.2678 9.98223C27.7366 10.4511 28 11.087 28 11.75V25.5C28 26.163 27.7366 26.7989 27.2678 27.2678C26.7989 27.7366 26.163 28 25.5 28H10.5C9.83696 28 9.20107 27.7366 8.73223 27.2678C8.26339 26.7989 8 26.163 8 25.5V11.75C8 11.087 8.26339 10.4511 8.73223 9.98223C9.20107 9.51339 9.83696 9.25 10.5 9.25H11.75V8.625C11.75 8.45924 11.8158 8.30027 11.9331 8.18306C12.0503 8.06585 12.2092 8 12.375 8ZM10.5 10.5C10.1685 10.5 9.85054 10.6317 9.61612 10.8661C9.3817 11.1005 9.25 11.4185 9.25 11.75V25.5C9.25 25.8315 9.3817 26.1495 9.61612 26.3839C9.85054 26.6183 10.1685 26.75 10.5 26.75H25.5C25.8315 26.75 26.1495 26.6183 26.3839 26.3839C26.6183 26.1495 26.75 25.8315 26.75 25.5V11.75C26.75 11.4185 26.6183 11.1005 26.3839 10.8661C26.1495 10.6317 25.8315 10.5 25.5 10.5H10.5Z" fill="#FDFDFD"/>
<path d="M11.125 13C11.125 12.8342 11.1908 12.6753 11.3081 12.5581C11.4253 12.4408 11.5842 12.375 11.75 12.375H24.25C24.4158 12.375 24.5747 12.4408 24.6919 12.5581C24.8092 12.6753 24.875 12.8342 24.875 13V14.25C24.875 14.4158 24.8092 14.5747 24.6919 14.6919C24.5747 14.8092 24.4158 14.875 24.25 14.875H11.75C11.5842 14.875 11.4253 14.8092 11.3081 14.6919C11.1908 14.5747 11.125 14.4158 11.125 14.25V13Z" fill="#FDFDFD"/>
</svg>
