<svg width="20" height="20" viewBox="0 0 20 20" fill="none" xmlns="http://www.w3.org/2000/svg">
<g clip-path="url(#clip0_7_675)">
<path d="M13.5673 10.1825C13.6255 10.2405 13.6717 10.3095 13.7032 10.3854C13.7347 10.4614 13.7509 10.5428 13.7509 10.625C13.7509 10.7072 13.7347 10.7886 13.7032 10.8645C13.6717 10.9405 13.6255 11.0094 13.5673 11.0675L9.81731 14.8175C9.75926 14.8757 9.69029 14.9219 9.61436 14.9534C9.53842 14.9849 9.45702 15.0011 9.37481 15.0011C9.2926 15.0011 9.2112 14.9849 9.13527 14.9534C9.05934 14.9219 8.99037 14.8757 8.93231 14.8175L7.05731 12.9425C6.9992 12.8844 6.95311 12.8154 6.92166 12.7395C6.89021 12.6635 6.87402 12.5822 6.87402 12.5C6.87402 12.4178 6.89021 12.3364 6.92166 12.2605C6.95311 12.1846 6.9992 12.1156 7.05731 12.0575C7.17467 11.9401 7.33384 11.8742 7.49981 11.8742C7.58199 11.8742 7.66337 11.8904 7.73929 11.9218C7.81522 11.9533 7.8842 11.9994 7.94231 12.0575L9.37481 13.4912L12.6823 10.1825C12.7404 10.1243 12.8093 10.0781 12.8853 10.0466C12.9612 10.0151 13.0426 9.99887 13.1248 9.99887C13.207 9.99887 13.2884 10.0151 13.3644 10.0466C13.4403 10.0781 13.5093 10.1243 13.5673 10.1825Z" fill="#999999"/>
<path d="M4.375 0C4.54076 0 4.69973 0.065848 4.81694 0.183058C4.93415 0.300269 5 0.45924 5 0.625V1.25H15V0.625C15 0.45924 15.0658 0.300269 15.1831 0.183058C15.3003 0.065848 15.4592 0 15.625 0C15.7908 0 15.9497 0.065848 16.0669 0.183058C16.1842 0.300269 16.25 0.45924 16.25 0.625V1.25H17.5C18.163 1.25 18.7989 1.51339 19.2678 1.98223C19.7366 2.45107 20 3.08696 20 3.75V17.5C20 18.163 19.7366 18.7989 19.2678 19.2678C18.7989 19.7366 18.163 20 17.5 20H2.5C1.83696 20 1.20107 19.7366 0.732233 19.2678C0.263392 18.7989 0 18.163 0 17.5V3.75C0 3.08696 0.263392 2.45107 0.732233 1.98223C1.20107 1.51339 1.83696 1.25 2.5 1.25H3.75V0.625C3.75 0.45924 3.81585 0.300269 3.93306 0.183058C4.05027 0.065848 4.20924 0 4.375 0ZM2.5 2.5C2.16848 2.5 1.85054 2.6317 1.61612 2.86612C1.3817 3.10054 1.25 3.41848 1.25 3.75V17.5C1.25 17.8315 1.3817 18.1495 1.61612 18.3839C1.85054 18.6183 2.16848 18.75 2.5 18.75H17.5C17.8315 18.75 18.1495 18.6183 18.3839 18.3839C18.6183 18.1495 18.75 17.8315 18.75 17.5V3.75C18.75 3.41848 18.6183 3.10054 18.3839 2.86612C18.1495 2.6317 17.8315 2.5 17.5 2.5H2.5Z" fill="#999999"/>
<path d="M3.125 5C3.125 4.83424 3.19085 4.67527 3.30806 4.55806C3.42527 4.44085 3.58424 4.375 3.75 4.375H16.25C16.4158 4.375 16.5747 4.44085 16.6919 4.55806C16.8092 4.67527 16.875 4.83424 16.875 5V6.25C16.875 6.41576 16.8092 6.57473 16.6919 6.69194C16.5747 6.80915 16.4158 6.875 16.25 6.875H3.75C3.58424 6.875 3.42527 6.80915 3.30806 6.69194C3.19085 6.57473 3.125 6.41576 3.125 6.25V5Z" fill="#999999"/>
</g>
<defs>
<clipPath id="clip0_7_675">
<rect width="20" height="20" fill="white"/>
</clipPath>
</defs>
</svg>
