<svg width="37" height="36" viewBox="0 0 37 36" fill="none" xmlns="http://www.w3.org/2000/svg">
<rect width="36.39" height="35.5" rx="17.75" fill="#615EFC"/>
<path d="M13 21.2262C13.185 23.31 14.8913 24.7888 17.4887 24.98V26.5H18.7925V24.98C21.63 24.7563 23.39 23.1825 23.39 20.855C23.39 18.8675 22.2063 17.7175 19.695 17.07L18.7925 16.8363V12.0838C20.195 12.2213 21.1413 12.9763 21.38 14.1038H23.2175C23.01 12.1038 21.2925 10.6687 18.7925 10.51V9H17.4887V10.5412C15.065 10.8288 13.4013 12.3812 13.4013 14.4862C13.4013 16.3038 14.6087 17.59 16.7275 18.1325L17.49 18.335V23.3737C16.0538 23.1612 15.065 22.3737 14.8262 21.2262H13ZM17.2387 16.4313C15.935 16.1025 15.2387 15.4 15.2387 14.4113C15.2387 13.2312 16.1188 12.36 17.4887 12.1262V16.495L17.2387 16.4313ZM19.2275 18.7713C20.8363 19.175 21.5425 19.845 21.5425 20.9825C21.5425 22.3538 20.51 23.2675 18.7925 23.4062V18.6625L19.2275 18.7713Z" fill="#FDFDFD"/>
</svg>
