<svg width="20" height="20" viewBox="0 0 20 20" fill="none" xmlns="http://www.w3.org/2000/svg">
<path d="M5 13.4762C5.185 15.56 6.89125 17.0388 9.48875 17.23V18.75H10.7925V17.23C13.63 17.0063 15.39 15.4325 15.39 13.105C15.39 11.1175 14.2063 9.9675 11.695 9.32L10.7925 9.08625V4.33375C12.195 4.47125 13.1413 5.22625 13.38 6.35375H15.2175C15.01 4.35375 13.2925 2.91875 10.7925 2.76V1.25H9.48875V2.79125C7.065 3.07875 5.40125 4.63125 5.40125 6.73625C5.40125 8.55375 6.60875 9.84 8.7275 10.3825L9.49 10.585V15.6237C8.05375 15.4112 7.065 14.6237 6.82625 13.4762H5ZM9.23875 8.68125C7.935 8.3525 7.23875 7.65 7.23875 6.66125C7.23875 5.48125 8.11875 4.61 9.48875 4.37625V8.745L9.23875 8.68125ZM11.2275 11.0213C12.8363 11.425 13.5425 12.095 13.5425 13.2325C13.5425 14.6038 12.51 15.5175 10.7925 15.6562V10.9125L11.2275 11.0213Z" fill="#999999"/>
</svg>
