<svg width="20" height="20" viewBox="0 0 20 20" fill="none" xmlns="http://www.w3.org/2000/svg">
<g clip-path="url(#clip0_132_6241)">
<path d="M16.8723 0.993765L17.0585 0.807515C17.1987 0.667411 17.3651 0.55629 17.5482 0.480498C17.7314 0.404706 17.9276 0.365726 18.1258 0.365784C18.324 0.365842 18.5203 0.404937 18.7034 0.480836C18.8864 0.556736 19.0528 0.667954 19.1929 0.80814C19.333 0.948326 19.4441 1.11473 19.5199 1.29787C19.5957 1.481 19.6347 1.67726 19.6346 1.87546C19.6346 2.07365 19.5955 2.26989 19.5196 2.45298C19.4437 2.63607 19.3325 2.80241 19.1923 2.94251L19.006 3.12751C19.3246 3.48484 19.4945 3.95051 19.4808 4.42905C19.4671 4.90759 19.2708 5.36277 18.9323 5.70126L6.06727 18.5675C5.98685 18.6475 5.88616 18.7041 5.77602 18.7313L0.77602 19.9813C0.671385 20.0073 0.56179 20.0059 0.457886 19.977C0.353982 19.9482 0.259305 19.893 0.183058 19.8167C0.106811 19.7405 0.0515877 19.6458 0.0227559 19.5419C-0.00607584 19.438 -0.00753508 19.3284 0.01852 19.2238L1.26852 14.2238C1.29587 14.1141 1.35246 14.0138 1.43227 13.9338L13.4848 1.88126C13.3642 1.79643 13.2176 1.75692 13.0707 1.76973C12.9239 1.78254 12.7863 1.84684 12.6823 1.95126L8.56727 6.06752C8.50916 6.12563 8.44017 6.17172 8.36425 6.20317C8.28832 6.23462 8.20695 6.2508 8.12477 6.2508C8.04259 6.2508 7.96121 6.23462 7.88529 6.20317C7.80937 6.17172 7.74038 6.12563 7.68227 6.06752C7.62416 6.00941 7.57806 5.94042 7.54661 5.86449C7.51517 5.78857 7.49898 5.70719 7.49898 5.62502C7.49898 5.54284 7.51517 5.46146 7.54661 5.38554C7.57806 5.30961 7.62416 5.24062 7.68227 5.18251L11.7998 1.06751C12.1385 0.728784 12.594 0.532541 13.0728 0.519059C13.5517 0.505577 14.0175 0.675879 14.3748 0.995015C14.7182 0.688063 15.1626 0.51828 15.6233 0.518049C16.0839 0.517819 16.5285 0.687157 16.8723 0.993765ZM16.0673 1.95126C15.9501 1.8341 15.7911 1.76827 15.6254 1.76827C15.4597 1.76827 15.3007 1.8341 15.1835 1.95126L2.43727 14.695L1.48227 18.5163L5.30352 17.5613L18.0498 4.81751C18.108 4.75946 18.1542 4.69049 18.1857 4.61456C18.2172 4.53863 18.2334 4.45722 18.2334 4.37501C18.2334 4.29281 18.2172 4.2114 18.1857 4.13547C18.1542 4.05954 18.108 3.99057 18.0498 3.93251L16.0673 1.95126Z" fill="#999999"/>
</g>
<defs>
<clipPath id="clip0_132_6241">
<rect width="20" height="20" fill="white"/>
</clipPath>
</defs>
</svg>
