<svg width="36" height="36" viewBox="0 0 36 36" fill="none" xmlns="http://www.w3.org/2000/svg">
<rect x="0.5" y="0.5" width="35" height="35" rx="17.5" stroke="#615EFC"/>
<g clip-path="url(#clip0_132_6239)">
<path d="M24.8723 8.99376L25.0585 8.80751C25.1987 8.66741 25.3651 8.55629 25.5482 8.4805C25.7314 8.40471 25.9276 8.36573 26.1258 8.36578C26.324 8.36584 26.5203 8.40494 26.7034 8.48084C26.8864 8.55674 27.0528 8.66795 27.1929 8.80814C27.333 8.94833 27.4441 9.11473 27.5199 9.29787C27.5957 9.481 27.6347 9.67726 27.6346 9.87546C27.6346 10.0737 27.5955 10.2699 27.5196 10.453C27.4437 10.6361 27.3325 10.8024 27.1923 10.9425L27.006 11.1275C27.3246 11.4848 27.4945 11.9505 27.4808 12.4291C27.4671 12.9076 27.2708 13.3628 26.9323 13.7013L14.0673 26.5675C13.9868 26.6475 13.8862 26.7041 13.776 26.7313L8.77602 27.9813C8.67139 28.0073 8.56179 28.0059 8.45789 27.977C8.35398 27.9482 8.25931 27.893 8.18306 27.8167C8.10681 27.7405 8.05159 27.6458 8.02276 27.5419C7.99392 27.438 7.99246 27.3284 8.01852 27.2238L9.26852 22.2238C9.29587 22.1141 9.35246 22.0138 9.43227 21.9338L21.4848 9.88126C21.3642 9.79643 21.2176 9.75692 21.0707 9.76973C20.9239 9.78254 20.7863 9.84684 20.6823 9.95126L16.5673 14.0675C16.5092 14.1256 16.4402 14.1717 16.3642 14.2032C16.2883 14.2346 16.2069 14.2508 16.1248 14.2508C16.0426 14.2508 15.9612 14.2346 15.8853 14.2032C15.8094 14.1717 15.7404 14.1256 15.6823 14.0675C15.6242 14.0094 15.5781 13.9404 15.5466 13.8645C15.5152 13.7886 15.499 13.7072 15.499 13.625C15.499 13.5428 15.5152 13.4615 15.5466 13.3855C15.5781 13.3096 15.6242 13.2406 15.6823 13.1825L19.7998 9.06751C20.1385 8.72878 20.594 8.53254 21.0728 8.51906C21.5517 8.50558 22.0175 8.67588 22.3748 8.99501C22.7182 8.68806 23.1626 8.51828 23.6233 8.51805C24.0839 8.51782 24.5285 8.68716 24.8723 8.99376ZM24.0673 9.95126C23.9501 9.8341 23.7911 9.76827 23.6254 9.76827C23.4597 9.76827 23.3007 9.8341 23.1835 9.95126L10.4373 22.695L9.48227 26.5163L13.3035 25.5613L26.0498 12.8175C26.108 12.7595 26.1542 12.6905 26.1857 12.6146C26.2172 12.5386 26.2334 12.4572 26.2334 12.375C26.2334 12.2928 26.2172 12.2114 26.1857 12.1355C26.1542 12.0595 26.108 11.9906 26.0498 11.9325L24.0673 9.95126Z" fill="#615EFC"/>
</g>
<defs>
<clipPath id="clip0_132_6239">
<rect width="20" height="20" fill="white" transform="translate(8 8)"/>
</clipPath>
</defs>
</svg>
