<svg width="114" height="48" viewBox="0 0 114 48" fill="none" xmlns="http://www.w3.org/2000/svg">
<path d="M69.5717 27.2603H61.639V40.8926H57.163V7.12068H68.3426C72.1454 7.12068 75.0719 7.98849 77.1205 9.72279C79.169 11.4571 80.1937 13.9816 80.1937 17.2951C80.1937 19.4012 79.6251 21.237 78.4891 22.8007C77.3527 24.3652 75.7718 25.534 73.7467 26.3083L81.6785 40.6152V40.8926H76.9011L69.5717 27.2603ZM61.6395 23.6029H68.4818C70.6926 23.6029 72.4517 23.0298 73.7578 21.8841C75.064 20.7384 75.7177 19.204 75.7177 17.2831C75.7177 15.1925 75.095 13.5894 73.8504 12.4738C72.6059 11.3591 70.8082 10.7936 68.4583 10.7781H61.639V23.6029H61.6395Z" fill="black"/>
<path d="M10.3366 27.6878V40.8929H5.88367V7.12053H18.3388C22.0335 7.12053 24.9285 8.06457 27.0241 9.95266C29.1191 11.8408 30.1673 14.3405 30.1673 17.4509C30.1673 20.7312 29.1422 23.2579 27.0941 25.0299C25.046 26.8019 22.1119 27.6878 18.2928 27.6878H10.3366ZM10.3366 24.03H18.3388C20.7198 24.03 22.5441 23.4698 23.8116 22.3476C25.0792 21.2262 25.7139 19.6054 25.7139 17.4846C25.7139 15.4733 25.0792 13.8645 23.8116 12.6576C22.5441 11.4507 20.8044 10.8245 18.5933 10.7775H10.3366V24.03Z" fill="black"/>
<path d="M99.5089 32.0576H85.3615L82.1841 40.8927H77.5916L90.4868 7.12024H94.3831L107.302 40.8927H102.733L99.5089 32.0576ZM86.7062 28.4002H98.1872L92.4352 12.6179L86.7062 28.4002Z" fill="black"/>
<mask id="mask0_265_2917" style="mask-type:luminance" maskUnits="userSpaceOnUse" x="27" y="7" width="35" height="34">
<path d="M50.9347 17.6683C49.313 16.0466 47.0717 15.0431 44.5963 15.0431C42.121 15.0431 39.8796 16.0466 38.2579 17.6683C36.6362 19.29 35.6328 21.5313 35.6328 24.0067C35.6328 26.482 36.6362 28.7233 38.2579 30.3451C39.8796 31.9668 42.121 32.9702 44.5963 32.9702C47.0717 32.9702 49.313 31.9668 50.9347 30.3451C52.5564 28.7233 53.5599 26.482 53.5599 24.0067C53.5599 21.5309 52.5569 19.29 50.9347 17.6683ZM44.5963 7.12068C49.2589 7.12068 53.4805 9.01099 56.5365 12.0665C59.592 15.1225 61.4823 19.3441 61.4823 24.0067C61.4823 28.6693 59.592 32.8909 56.5365 35.9468C53.4805 39.0023 49.2589 40.8926 44.5963 40.8926C39.9337 40.8926 35.7121 39.0023 32.6562 35.9468C29.6006 32.8909 27.7099 28.6693 27.7099 24.0067C27.7099 19.3441 29.6002 15.1225 32.6562 12.0665C35.7121 9.01099 39.9342 7.12068 44.5963 7.12068Z" fill="white"/>
</mask>
<g mask="url(#mask0_265_2917)">
<path d="M61.4826 7.12068H27.7102V40.8931H61.4826V7.12068Z" fill="#615EFC"/>
<path d="M56.2311 12.7384L51.1948 12.1484L49.8415 17.0353" stroke="#FDFDFD" stroke-width="2" stroke-linecap="round" stroke-linejoin="round"/>
<path d="M32 34.2993L36.5119 34.1056L38.393 30" stroke="#FDFDFD" stroke-width="2" stroke-linecap="round" stroke-linejoin="round"/>
</g>
</svg>
