<svg width="36" height="36" viewBox="0 0 36 36" fill="none" xmlns="http://www.w3.org/2000/svg">
<rect width="36.0008" height="35.9979" rx="17.999" fill="#B379ED"/>
<path d="M22.6786 20.9277C23.889 19.276 24.4311 17.2283 24.1965 15.1941C23.9619 13.1599 22.9679 11.2894 21.4133 9.9566C19.8588 8.62384 17.8583 7.92719 15.8122 8.00603C13.766 8.08487 11.8251 8.93339 10.3777 10.3818C8.93031 11.8303 8.08319 13.7718 8.00581 15.818C7.92843 17.8642 8.62651 19.8641 9.96038 21.4177C11.2943 22.9713 13.1656 23.964 15.1999 24.1972C17.2342 24.4303 19.2816 23.8867 20.9324 22.6752H20.9311C20.9678 22.7252 21.0086 22.7731 21.0536 22.8189L25.8661 27.6314C26.1005 27.866 26.4185 27.9978 26.7501 27.9979C27.0816 27.9981 27.3997 27.8664 27.6342 27.6321C27.8688 27.3977 28.0006 27.0797 28.0008 26.7481C28.0009 26.4165 27.8693 26.0985 27.6349 25.8639L22.8224 21.0514C22.7777 21.0062 22.7296 20.9656 22.6786 20.9277ZM23.0011 16.1227C23.0011 17.0255 22.8233 17.9195 22.4778 18.7536C22.1323 19.5877 21.6259 20.3456 20.9875 20.984C20.3491 21.6224 19.5912 22.1289 18.7571 22.4744C17.923 22.8199 17.029 22.9977 16.1261 22.9977C15.2233 22.9977 14.3293 22.8199 13.4952 22.4744C12.6611 22.1289 11.9032 21.6224 11.2648 20.984C10.6264 20.3456 10.12 19.5877 9.77445 18.7536C9.42895 17.9195 9.25112 17.0255 9.25112 16.1227C9.25112 14.2993 9.97545 12.5506 11.2648 11.2613C12.5541 9.97201 14.3028 9.24768 16.1261 9.24768C17.9495 9.24768 19.6982 9.97201 20.9875 11.2613C22.2768 12.5506 23.0011 14.2993 23.0011 16.1227Z" fill="#FDFDFD"/>
</svg>
