<svg width="36" height="35" viewBox="0 0 36 35" fill="none" xmlns="http://www.w3.org/2000/svg">
<rect width="36" height="35.0054" rx="17.5027" fill="#B379ED"/>
<path d="M8 11.875C8 11.3777 8.19754 10.9008 8.54917 10.5492C8.90081 10.1975 9.37772 10 9.875 10H21.125C21.6223 10 22.0992 10.1975 22.4508 10.5492C22.8025 10.9008 23 11.3777 23 11.875V13.75H24.275C24.5559 13.7503 24.8332 13.8136 25.0863 13.9354C25.3395 14.0572 25.562 14.2344 25.7375 14.4538L27.5887 16.7663C27.8551 17.099 28.0002 17.5125 28 17.9387V20.625C28 21.1223 27.8025 21.5992 27.4508 21.9508C27.0992 22.3025 26.6223 22.5 26.125 22.5H25.5C25.5 23.163 25.2366 23.7989 24.7678 24.2678C24.2989 24.7366 23.663 25 23 25C22.337 25 21.7011 24.7366 21.2322 24.2678C20.7634 23.7989 20.5 23.163 20.5 22.5H14.25C14.2507 22.8332 14.1848 23.1632 14.0562 23.4706C13.9275 23.778 13.7387 24.0566 13.5008 24.29C13.2629 24.5233 12.9808 24.7068 12.671 24.8296C12.3612 24.9523 12.03 25.0119 11.6969 25.0048C11.3637 24.9977 11.0353 24.9241 10.731 24.7883C10.4267 24.6525 10.1527 24.4572 9.92494 24.2139C9.6972 23.9707 9.5204 23.6843 9.40492 23.3717C9.28944 23.0592 9.23762 22.7266 9.2525 22.3938C8.88631 22.2649 8.56915 22.0255 8.34481 21.7087C8.12046 21.3919 7.99998 21.0132 8 20.625V11.875ZM9.6175 21.195C9.84374 20.8253 10.1622 20.5208 10.5417 20.3113C10.9211 20.1018 11.3485 19.9946 11.7819 20.0001C12.2153 20.0057 12.6398 20.1238 13.0138 20.3429C13.3877 20.5621 13.6983 20.8746 13.915 21.25H20.835C21.0544 20.87 21.37 20.5544 21.75 20.335V11.875C21.75 11.7092 21.6842 11.5503 21.5669 11.4331C21.4497 11.3158 21.2908 11.25 21.125 11.25H9.875C9.70924 11.25 9.55027 11.3158 9.43306 11.4331C9.31585 11.5503 9.25 11.7092 9.25 11.875V20.625C9.2499 20.7453 9.28452 20.8631 9.34971 20.9642C9.4149 21.0653 9.50788 21.1454 9.6175 21.195ZM23 20C23.4388 20 23.8699 20.1155 24.25 20.335C24.63 20.5544 24.9456 20.87 25.165 21.25H26.125C26.2908 21.25 26.4497 21.1842 26.5669 21.0669C26.6842 20.9497 26.75 20.7908 26.75 20.625V17.9375C26.7497 17.7957 26.7013 17.6581 26.6125 17.5475L24.7625 15.235C24.704 15.1618 24.6299 15.1027 24.5455 15.062C24.4611 15.0213 24.3687 15.0001 24.275 15H23V20ZM11.75 21.25C11.4185 21.25 11.1005 21.3817 10.8661 21.6161C10.6317 21.8505 10.5 22.1685 10.5 22.5C10.5 22.8315 10.6317 23.1495 10.8661 23.3839C11.1005 23.6183 11.4185 23.75 11.75 23.75C12.0815 23.75 12.3995 23.6183 12.6339 23.3839C12.8683 23.1495 13 22.8315 13 22.5C13 22.1685 12.8683 21.8505 12.6339 21.6161C12.3995 21.3817 12.0815 21.25 11.75 21.25ZM23 21.25C22.6685 21.25 22.3505 21.3817 22.1161 21.6161C21.8817 21.8505 21.75 22.1685 21.75 22.5C21.75 22.8315 21.8817 23.1495 22.1161 23.3839C22.3505 23.6183 22.6685 23.75 23 23.75C23.3315 23.75 23.6495 23.6183 23.8839 23.3839C24.1183 23.1495 24.25 22.8315 24.25 22.5C24.25 22.1685 24.1183 21.8505 23.8839 21.6161C23.6495 21.3817 23.3315 21.25 23 21.25Z" fill="#FDFDFD"/>
</svg>
