<svg width="36" height="36" viewBox="0 0 36 36" fill="none" xmlns="http://www.w3.org/2000/svg">
<rect x="0.5" y="0.5" width="35" height="35" rx="17.5" stroke="#615EFC"/>
<path d="M20.2851 8.90253C20.3672 8.90238 20.4486 8.91842 20.5245 8.94974C20.6004 8.98105 20.6694 9.02703 20.7276 9.08503L26.9151 15.2725C27.0322 15.3897 27.0981 15.5487 27.0981 15.7144C27.0981 15.8801 27.0322 16.0391 26.9151 16.1563C26.3151 16.7563 25.5751 16.8913 25.0363 16.8913C24.8151 16.8913 24.6176 16.8688 24.4613 16.8425L20.5438 20.76C20.6465 21.1756 20.7134 21.5993 20.7438 22.0263C20.8013 22.9038 20.7038 24.135 19.8438 24.995C19.7266 25.1122 19.5677 25.178 19.4019 25.178C19.2362 25.178 19.0773 25.1122 18.9601 24.995L15.4238 21.46L11.4463 25.4375C11.2026 25.6813 9.92257 26.565 9.67882 26.3213C9.43507 26.0775 10.3188 24.7963 10.5626 24.5538L14.5401 20.5763L11.0051 17.04C10.8879 16.9228 10.8221 16.7639 10.8221 16.5982C10.8221 16.4324 10.8879 16.2735 11.0051 16.1563C11.8651 15.2963 13.0963 15.1975 13.9738 15.2563C14.4008 15.2867 14.8245 15.3536 15.2401 15.4563L19.1576 11.54C19.1261 11.3495 19.1094 11.1569 19.1076 10.9638C19.1076 10.4263 19.2426 9.68628 19.8438 9.08503C19.9609 8.96819 20.1196 8.90256 20.2851 8.90253ZM20.4376 11.54V11.5425C20.4737 11.6525 20.4785 11.7703 20.4516 11.8829C20.4247 11.9954 20.367 12.0983 20.2851 12.18L15.8663 16.5975C15.7842 16.6793 15.681 16.7366 15.5682 16.7631C15.4554 16.7896 15.3375 16.7842 15.2276 16.7475H15.2251L15.2076 16.7425C15.0885 16.7073 14.9685 16.6756 14.8476 16.6475C14.533 16.5746 14.2133 16.5261 13.8913 16.5025C13.3638 16.4675 12.8463 16.5125 12.4226 16.69L19.3101 23.5763C19.4863 23.1513 19.5313 22.635 19.4963 22.1075C19.4637 21.661 19.3833 21.2193 19.2563 20.79L19.2513 20.7738C19.2144 20.6637 19.2089 20.5443 19.2354 20.4312C19.2619 20.3182 19.3193 20.2147 19.4013 20.1325L23.8213 15.7138C23.9064 15.6281 24.0145 15.569 24.1325 15.5435C24.2506 15.518 24.3734 15.5272 24.4863 15.57L24.6063 15.5975C24.7151 15.6188 24.8663 15.64 25.0363 15.64C25.1796 15.6417 25.3226 15.625 25.4651 15.59L20.4088 10.535C20.3738 10.6784 20.3571 10.8213 20.3588 10.9638C20.3597 11.158 20.3858 11.3513 20.4363 11.5388L20.4376 11.54Z" fill="#615EFC"/>
</svg>
