<svg width="20" height="20" viewBox="0 0 20 20" fill="none" xmlns="http://www.w3.org/2000/svg">
<g clip-path="url(#clip0_132_8953)">
<path d="M5.1825 0.182501C5.24065 0.124499 5.30966 0.0785261 5.38559 0.0472115C5.46151 0.0158969 5.54287 -0.000145687 5.625 9.96867e-07H14.375C14.5408 9.96867e-07 14.6997 0.065849 14.8169 0.183059C14.9342 0.30027 15 0.459241 15 0.625001C15 1.475 14.5725 2.0925 14.1925 2.47375C14.035 2.63 13.88 2.75375 13.75 2.84625V8.385L13.8475 8.445C14.1012 8.60375 14.4425 8.8375 14.7863 9.13875C15.45 9.71875 16.25 10.6588 16.25 11.875C16.25 12.0408 16.1842 12.1997 16.0669 12.3169C15.9497 12.4342 15.7908 12.5 15.625 12.5H10.625V18.125C10.625 18.47 10.345 20 10 20C9.655 20 9.375 18.47 9.375 18.125V12.5H4.375C4.20924 12.5 4.05027 12.4342 3.93306 12.3169C3.81585 12.1997 3.75 12.0408 3.75 11.875C3.75 10.6588 4.55 9.71875 5.2125 9.13875C5.53618 8.85834 5.88328 8.60617 6.25 8.385V2.84625C6.09313 2.73366 5.94519 2.60912 5.8075 2.47375C5.4275 2.0925 5 1.47375 5 0.625001C4.99985 0.54287 5.0159 0.461515 5.04721 0.385588C5.07853 0.309661 5.1245 0.24065 5.1825 0.182501ZM7.155 1.94125L7.1575 1.9425C7.26053 1.99471 7.34707 2.07444 7.40753 2.17285C7.46799 2.27126 7.5 2.3845 7.5 2.5V8.75C7.5 8.86597 7.46772 8.97966 7.4068 9.07834C7.34587 9.17702 7.25868 9.25679 7.155 9.30875H7.1525L7.1375 9.3175L7.07 9.355C6.70183 9.56115 6.35548 9.80406 6.03625 10.08C5.63875 10.4275 5.305 10.825 5.13 11.25H14.87C14.695 10.825 14.3612 10.4275 13.9637 10.08C13.625 9.78712 13.2558 9.53148 12.8625 9.3175L12.8475 9.31H12.845C12.7411 9.25795 12.6538 9.17798 12.5929 9.07906C12.5319 8.98014 12.4998 8.86619 12.5 8.75V2.5C12.4995 2.37914 12.5341 2.26073 12.5996 2.15912C12.665 2.05751 12.7585 1.97705 12.8687 1.9275C13.0284 1.8331 13.1758 1.71932 13.3075 1.58875C13.4075 1.48875 13.5012 1.37625 13.575 1.25H6.425C6.50083 1.375 6.59 1.48792 6.6925 1.58875C6.83077 1.72576 6.98623 1.84425 7.155 1.94125Z" fill="#999999"/>
</g>
<defs>
<clipPath id="clip0_132_8953">
<rect width="20" height="20" fill="white"/>
</clipPath>
</defs>
</svg>
