<svg width="36" height="36" viewBox="0 0 36 36" fill="none" xmlns="http://www.w3.org/2000/svg">
<rect width="36" height="36" rx="18" fill="#615EFC"/>
<g clip-path="url(#clip0_132_8951)">
<path d="M13.1825 8.1825C13.2406 8.1245 13.3097 8.07853 13.3856 8.04721C13.4615 8.0159 13.5429 7.99985 13.625 8H22.375C22.5408 8 22.6997 8.06585 22.8169 8.18306C22.9342 8.30027 23 8.45924 23 8.625C23 9.475 22.5725 10.0925 22.1925 10.4738C22.035 10.63 21.88 10.7538 21.75 10.8463V16.385L21.8475 16.445C22.1012 16.6038 22.4425 16.8375 22.7863 17.1388C23.45 17.7188 24.25 18.6588 24.25 19.875C24.25 20.0408 24.1842 20.1997 24.0669 20.3169C23.9497 20.4342 23.7908 20.5 23.625 20.5H18.625V26.125C18.625 26.47 18.345 28 18 28C17.655 28 17.375 26.47 17.375 26.125V20.5H12.375C12.2092 20.5 12.0503 20.4342 11.9331 20.3169C11.8158 20.1997 11.75 20.0408 11.75 19.875C11.75 18.6588 12.55 17.7188 13.2125 17.1388C13.5362 16.8583 13.8833 16.6062 14.25 16.385V10.8463C14.0931 10.7337 13.9452 10.6091 13.8075 10.4738C13.4275 10.0925 13 9.47375 13 8.625C12.9999 8.54287 13.0159 8.46152 13.0472 8.38559C13.0785 8.30966 13.1245 8.24065 13.1825 8.1825ZM15.155 9.94125L15.1575 9.9425C15.2605 9.99471 15.3471 10.0744 15.4075 10.1729C15.468 10.2713 15.5 10.3845 15.5 10.5V16.75C15.5 16.866 15.4677 16.9797 15.4068 17.0783C15.3459 17.177 15.2587 17.2568 15.155 17.3088H15.1525L15.1375 17.3175L15.07 17.355C14.7018 17.5612 14.3555 17.8041 14.0363 18.08C13.6387 18.4275 13.305 18.825 13.13 19.25H22.87C22.695 18.825 22.3612 18.4275 21.9637 18.08C21.625 17.7871 21.2558 17.5315 20.8625 17.3175L20.8475 17.31H20.845C20.7411 17.2579 20.6538 17.178 20.5929 17.0791C20.5319 16.9801 20.4998 16.8662 20.5 16.75V10.5C20.4995 10.3791 20.5341 10.2607 20.5996 10.1591C20.665 10.0575 20.7585 9.97705 20.8687 9.9275C21.0284 9.8331 21.1758 9.71932 21.3075 9.58875C21.4075 9.48875 21.5012 9.37625 21.575 9.25H14.425C14.5008 9.375 14.59 9.48792 14.6925 9.58875C14.8308 9.72576 14.9862 9.84425 15.155 9.94125Z" fill="#FDFDFD"/>
</g>
<defs>
<clipPath id="clip0_132_8951">
<rect width="20" height="20" fill="white" transform="translate(8 8)"/>
</clipPath>
</defs>
</svg>
