<svg width="36" height="36" viewBox="0 0 36 36" fill="none" xmlns="http://www.w3.org/2000/svg">
<rect width="36.0013" height="36.0024" rx="18.0006" fill="#B379ED"/>
<path d="M9.25 8.00112L8 9.25112L10.75 13.1024C10.8658 13.2645 11.0186 13.3967 11.1958 13.4878C11.3731 13.5789 11.5695 13.6263 11.7687 13.6261H11.8562C12.0206 13.626 12.1834 13.6583 12.3352 13.7211C12.4871 13.784 12.6251 13.8761 12.7412 13.9924L16.085 17.3361L12.8137 20.6536C12.2542 20.4889 11.6641 20.4569 11.09 20.56C10.5159 20.6631 9.97382 20.8986 9.50662 21.2478C9.03943 21.5969 8.66003 22.0501 8.3985 22.5714C8.13698 23.0928 8.00054 23.6679 8 24.2511C8.00075 24.7885 8.117 25.3195 8.34089 25.8081C8.56477 26.2967 8.89106 26.7314 9.29763 27.0829C9.70421 27.4343 10.1816 27.6943 10.6974 27.8451C11.2132 27.996 11.7554 28.0342 12.2873 27.9572C12.8192 27.8802 13.3283 27.6898 13.7802 27.3988C14.232 27.1079 14.6161 26.7232 14.9063 26.2709C15.1965 25.8185 15.3861 25.3091 15.4622 24.7771C15.5383 24.2451 15.4992 23.7029 15.3475 23.1874L18.665 19.9161L19.875 21.1261L19.4937 22.2686C19.4205 22.4888 19.41 22.7251 19.4634 22.9509C19.5168 23.1768 19.6321 23.3833 19.7962 23.5474L23.8837 27.6349C23.9996 27.7513 24.1373 27.8438 24.2889 27.9069C24.4406 27.9699 24.6032 28.0024 24.7675 28.0024C24.9318 28.0024 25.0944 27.9699 25.2461 27.9069C25.3977 27.8438 25.5354 27.7513 25.6512 27.6349L27.6337 25.6524C27.7502 25.5366 27.8427 25.3988 27.9057 25.2472C27.9688 25.0955 28.0013 24.9329 28.0013 24.7686C28.0013 24.6044 27.9688 24.4417 27.9057 24.2901C27.8427 24.1384 27.7502 24.0007 27.6337 23.8849L23.5462 19.7974C23.3822 19.6332 23.1757 19.518 22.9498 19.4645C22.724 19.4111 22.4877 19.4216 22.2675 19.4949L21.125 19.8761L19.925 18.6761L23.275 15.3724C23.8307 15.5207 24.4131 15.5394 24.9772 15.4271C25.5414 15.3148 26.0721 15.0744 26.5287 14.7246C26.9852 14.3747 27.3553 13.9246 27.6104 13.4091C27.8655 12.8935 27.9988 12.3263 28 11.7511C28 11.4136 27.9575 11.0899 27.8725 10.7799L25.1975 13.4561L23 13.0011L22.545 10.8049L25.2212 8.12862C24.5846 7.95744 23.9141 7.95712 23.2773 8.12769C22.6405 8.29826 22.0599 8.63368 21.5941 9.10015C21.1283 9.56662 20.7936 10.1477 20.6239 10.7847C20.4542 11.4217 20.4555 12.0922 20.6275 12.7286L17.3275 16.0761L13.9912 12.7424C13.7568 12.508 13.6251 12.1901 13.625 11.8586V11.7699C13.625 11.5708 13.5775 11.3746 13.4864 11.1977C13.3953 11.0207 13.2633 10.868 13.1012 10.7524L9.25 8.00112ZM21.3075 21.3086C21.3656 21.2504 21.4345 21.2042 21.5105 21.1727C21.5864 21.1412 21.6678 21.125 21.75 21.125C21.8322 21.125 21.9136 21.1412 21.9895 21.1727C22.0655 21.2042 22.1344 21.2504 22.1925 21.3086L25.835 24.9524C25.9488 25.0702 26.0118 25.2281 26.0104 25.392C26.009 25.5559 25.9433 25.7126 25.8274 25.8285C25.7115 25.9444 25.5547 26.0101 25.3909 26.0115C25.227 26.013 25.0691 25.95 24.9512 25.8361L21.3075 22.1936C21.2493 22.1356 21.2031 22.0666 21.1716 21.9907C21.1401 21.9147 21.1239 21.8333 21.1239 21.7511C21.1239 21.6689 21.1401 21.5875 21.1716 21.5116C21.2031 21.4356 21.2493 21.3667 21.3075 21.3086ZM11.75 21.7511L12.3387 22.0536L13 22.0861L13.3587 22.6424L13.915 23.0011L13.9475 23.6624L14.25 24.2511L13.9475 24.8399L13.915 25.5011L13.3587 25.8599L13 26.4161L12.3387 26.4486L11.75 26.7511L11.1612 26.4486L10.5 26.4161L10.1412 25.8599L9.585 25.5011L9.5525 24.8399L9.25 24.2511L9.5525 23.6624L9.585 23.0011L10.1412 22.6424L10.5 22.0861L11.1612 22.0536L11.75 21.7511Z" fill="#FDFDFD"/>
</svg>
