<svg width="20" height="20" viewBox="0 0 20 20" fill="none" xmlns="http://www.w3.org/2000/svg">
<g clip-path="url(#clip0_15_2975)">
<path d="M1.25 2.21212e-06L0 1.25L2.75 5.10125C2.86577 5.26343 3.01864 5.39559 3.19585 5.48669C3.37306 5.5778 3.56949 5.62522 3.76875 5.625H3.85625C4.0206 5.62487 4.18336 5.65716 4.33522 5.72C4.48708 5.78285 4.62505 5.87502 4.74125 5.99125L8.085 9.335L4.81375 12.6525C4.25424 12.4878 3.66405 12.4557 3.09 12.5589C2.51594 12.662 1.97382 12.8975 1.50662 13.2466C1.03943 13.5958 0.660026 14.049 0.398504 14.5703C0.136983 15.0917 0.000540251 15.6668 0 16.25C0.000749329 16.7874 0.117005 17.3184 0.340889 17.807C0.564774 18.2955 0.891057 18.7303 1.29763 19.0817C1.70421 19.4332 2.18158 19.6932 2.69739 19.844C3.21321 19.9949 3.75543 20.0331 4.28731 19.9561C4.81919 19.8791 5.3283 19.6886 5.78016 19.3977C6.23201 19.1068 6.61605 18.7221 6.90626 18.2697C7.19646 17.8174 7.38605 17.308 7.46218 16.776C7.53831 16.244 7.4992 15.7018 7.3475 15.1863L10.665 11.915L11.875 13.125L11.4937 14.2675C11.4205 14.4877 11.41 14.724 11.4634 14.9498C11.5168 15.1757 11.6321 15.3822 11.7962 15.5463L15.8837 19.6338C15.9996 19.7502 16.1373 19.8427 16.2889 19.9057C16.4406 19.9688 16.6032 20.0013 16.7675 20.0013C16.9318 20.0013 17.0944 19.9688 17.2461 19.9057C17.3977 19.8427 17.5354 19.7502 17.6512 19.6338L19.6337 17.6513C19.7502 17.5354 19.8427 17.3977 19.9057 17.2461C19.9688 17.0944 20.0013 16.9318 20.0013 16.7675C20.0013 16.6032 19.9688 16.4406 19.9057 16.2889C19.8427 16.1373 19.7502 15.9996 19.6337 15.8838L15.5462 11.7963C15.3822 11.6321 15.1757 11.5168 14.9498 11.4634C14.724 11.41 14.4877 11.4205 14.2675 11.4938L13.125 11.875L11.925 10.675L15.275 7.37125C15.8307 7.5196 16.4131 7.53833 16.9772 7.42602C17.5414 7.3137 18.0721 7.07333 18.5287 6.72344C18.9852 6.37355 19.3553 5.92349 19.6104 5.40796C19.8655 4.89242 19.9988 4.32519 20 3.75C20 3.4125 19.9575 3.08875 19.8725 2.77875L17.1975 5.455L15 5L14.545 2.80375L17.2212 0.127502C16.5846 -0.0436712 15.9141 -0.0439907 15.2773 0.126576C14.6405 0.297142 14.0599 0.632567 13.5941 1.09904C13.1283 1.56551 12.7936 2.14654 12.6239 2.78357C12.4542 3.4206 12.4555 4.0911 12.6275 4.7275L9.3275 8.075L5.99125 4.74125C5.75681 4.50689 5.62507 4.189 5.625 3.8575V3.76875C5.62502 3.5697 5.5775 3.37353 5.4864 3.19655C5.3953 3.01957 5.26326 2.8669 5.10125 2.75125L1.25 2.21212e-06ZM13.3075 13.3075C13.3656 13.2493 13.4345 13.2031 13.5105 13.1716C13.5864 13.1401 13.6678 13.1239 13.75 13.1239C13.8322 13.1239 13.9136 13.1401 13.9895 13.1716C14.0655 13.2031 14.1344 13.2493 14.1925 13.3075L17.835 16.9513C17.9488 17.0691 18.0118 17.227 18.0104 17.3909C18.009 17.5548 17.9433 17.7115 17.8274 17.8274C17.7115 17.9433 17.5547 18.009 17.3909 18.0104C17.227 18.0118 17.0691 17.9489 16.9512 17.835L13.3075 14.1925C13.2493 14.1344 13.2031 14.0655 13.1716 13.9895C13.1401 13.9136 13.1239 13.8322 13.1239 13.75C13.1239 13.6678 13.1401 13.5864 13.1716 13.5105C13.2031 13.4345 13.2493 13.3656 13.3075 13.3075ZM3.75 13.75L4.33875 14.0525L5 14.085L5.35875 14.6413L5.915 15L5.9475 15.6613L6.25 16.25L5.9475 16.8388L5.915 17.5L5.35875 17.8588L5 18.415L4.33875 18.4475L3.75 18.75L3.16125 18.4475L2.5 18.415L2.14125 17.8588L1.585 17.5L1.5525 16.8388L1.25 16.25L1.5525 15.6613L1.585 15L2.14125 14.6413L2.5 14.085L3.16125 14.0525L3.75 13.75Z" fill="#999999"/>
</g>
<defs>
<clipPath id="clip0_15_2975">
<rect width="20" height="20" fill="white"/>
</clipPath>
</defs>
</svg>
